Merritest-Regular.ufo
<glyph name="quotedbl" format="1">
  <advance width="1260"/>
  <unicode hex="0022"/>
  <outline>
    <contour>
      <point x="786" y="966" type="line"/>
      <point x="737" y="1782" type="line"/>
      <point x="963" y="1782" type="line"/>
      <point x="914" y="966" type="line"/>
    </contour>
    <contour>
      <point x="346" y="966" type="line"/>
      <point x="297" y="1782" type="line"/>
      <point x="523" y="1782" type="line"/>
      <point x="474" y="966" type="line"/>
    </contour>
  </outline>
</glyph>
<glyph name="quotesingle" format="1">
  <advance width="820"/>
  <unicode hex="0027"/>
  <outline>
    <contour>
      <point x="346" y="966" type="line"/>
      <point x="297" y="1782" type="line"/>
      <point x="523" y="1782" type="line"/>
      <point x="474" y="966" type="line"/>
    </contour>
  </outline>
</glyph>
<glyph name="asterisk" format="1">
  <advance width="1295"/>
  <unicode hex="002A"/>
  <outline>
    <contour>
      <point x="550" y="768" type="line"/>
      <point x="584" y="1126" type="line"/>
      <point x="611" y="1231" type="line"/>
      <point x="547" y="1160" type="line"/>
      <point x="251" y="927" type="line"/>
      <point x="151" y="1068" type="line"/>
      <point x="494" y="1248" type="line"/>
      <point x="586" y="1278" type="line"/>
      <point x="496" y="1308" type="line"/>
      <point x="150" y="1482" type="line"/>
      <point x="248" y="1626" type="line"/>
      <point x="543" y="1396" type="line"/>
      <point x="611" y="1327" type="line"/>
      <point x="584" y="1441" type="line"/>
      <point x="550" y="1786" type="line"/>
      <point x="611" y="1786"/>
      <point x="672" y="1785"/>
      <point x="733" y="1785" type="curve"/>
      <point x="702" y="1441" type="line"/>
      <point x="670" y="1327" type="line"/>
      <point x="756" y="1409" type="line"/>
      <point x="1032" y="1624" type="line"/>
      <point x="1145" y="1481" type="line"/>
      <point x="794" y="1314" type="line"/>
      <point x="694" y="1278" type="line"/>
      <point x="794" y="1245" type="line"/>
      <point x="1144" y="1066" type="line"/>
      <point x="1030" y="929" type="line"/>
      <point x="741" y="1162" type="line"/>
      <point x="671" y="1231" type="line"/>
      <point x="699" y="1126" type="line"/>
      <point x="733" y="768" type="line"/>
    </contour>
  </outline>
</glyph>
<glyph name="plus" format="1">
  <advance width="1269"/>
  <unicode hex="002B"/>
  <outline>
    <contour>
      <point x="557" y="321" type="line"/>
      <point x="557" y="561" type="line"/>
      <point x="564" y="727" type="line"/>
      <point x="398" y="720" type="line"/>
      <point x="178" y="720" type="line"/>
      <point x="178" y="875" type="line"/>
      <point x="398" y="875" type="line"/>
      <point x="564" y="863" type="line"/>
      <point x="557" y="1032" type="line"/>
      <point x="557" y="1260" type="line"/>
      <point x="712" y="1260" type="line"/>
      <point x="712" y="1032" type="line"/>
      <point x="703" y="863" type="line"/>
      <point x="840" y="875" type="line"/>
      <point x="1091" y="875" type="line"/>
      <point x="1091" y="720" type="line"/>
      <point x="840" y="720" type="line"/>
      <point x="703" y="727" type="line"/>
      <point x="712" y="561" type="line"/>
      <point x="712" y="321" type="line"/>
    </contour>
  </outline>
</glyph>
<glyph name="equal" format="1">
  <advance width="1241"/>
  <unicode hex="003D"/>
  <outline>
    <contour>
      <point x="178" y="914" type="line"/>
      <point x="178" y="1061" type="line"/>
      <point x="1063" y="1061" type="line"/>
      <point x="1063" y="914" type="line"/>
    </contour>
    <contour>
      <point x="178" y="525" type="line"/>
      <point x="178" y="672" type="line"/>
      <point x="1063" y="672" type="line"/>
      <point x="1063" y="525" type="line"/>
    </contour>
  </outline>
</glyph>
<glyph name="question" format="1">
  <advance width="1012"/>
  <unicode hex="003F"/>
  <outline>
    <contour>
      <point x="472" y="490" type="line"/>
      <point x="408" y="538"/>
      <point x="296" y="719"/>
      <point x="288" y="830" type="curve"/>
      <point x="281" y="997"/>
      <point x="747" y="1072"/>
      <point x="777" y="1169" type="curve"/>
      <point x="792" y="1431"/>
      <point x="555" y="1659"/>
      <point x="295" y="1659" type="curve" smooth="yes"/>
      <point x="244" y="1659"/>
      <point x="167" y="1654"/>
      <point x="130" y="1637" type="curve"/>
      <point x="130" y="1789" type="line"/>
      <point x="151" y="1815"/>
      <point x="240" y="1835"/>
      <point x="320" y="1835" type="curve" smooth="yes"/>
      <point x="771" y="1835"/>
      <point x="929" y="1515"/>
      <point x="929" y="1262" type="curve" smooth="yes"/>
      <point x="929" y="1235"/>
      <point x="928" y="1208"/>
      <point x="924" y="1183" type="curve"/>
      <point x="924" y="1035"/>
      <point x="521" y="965"/>
      <point x="481" y="839" type="curve"/>
      <point x="479" y="827"/>
      <point x="478" y="815"/>
      <point x="478" y="803" type="curve" smooth="yes"/>
      <point x="478" y="705"/>
      <point x="536" y="600"/>
      <point x="577" y="490" type="curve"/>
    </contour>
    <contour>
      <point x="406" y="101" type="curve" smooth="yes"/>
      <point x="406" y="184"/>
      <point x="484" y="247"/>
      <point x="555" y="247" type="curve" smooth="yes"/>
      <point x="643" y="247"/>
      <point x="682" y="191"/>
      <point x="682" y="123" type="curve" smooth="yes"/>
      <point x="682" y="35"/>
      <point x="607" y="-22"/>
      <point x="532" y="-22" type="curve" smooth="yes"/>
      <point x="467" y="-22"/>
      <point x="406" y="24"/>
    </contour>
  </outline>
</glyph>
<glyph name="B" format="1">
  <advance width="1419"/>
  <unicode hex="0042"/>
  <outline>
    <contour>
      <point x="106" y="0" type="line"/>
      <point x="106" y="85" type="line"/>
      <point x="275" y="115" type="line"/>
      <point x="275" y="1438" type="line"/>
      <point x="110" y="1455" type="line"/>
      <point x="110" y="1553" type="line"/>
      <point x="363" y="1553" type="line"/>
      <point x="451" y="1556"/>
      <point x="570" y="1568"/>
      <point x="731" y="1567" type="curve" smooth="yes"/>
      <point x="1052" y="1565"/>
      <point x="1224" y="1431"/>
      <point x="1224" y="1217" type="curve" smooth="yes"/>
      <point x="1224" y="1034"/>
      <point x="1133" y="880"/>
      <point x="932" y="835" type="curve"/>
      <point x="1151" y="832"/>
      <point x="1326" y="682"/>
      <point x="1326" y="456" type="curve" smooth="yes"/>
      <point x="1326" y="186"/>
      <point x="1117" y="-14"/>
      <point x="678" y="-14" type="curve" smooth="yes"/>
      <point x="564" y="-14"/>
      <point x="431" y="-5"/>
      <point x="361" y="0" type="curve"/>
    </contour>
    <contour>
      <point x="470" y="879" type="line"/>
      <point x="505" y="872"/>
      <point x="551" y="871"/>
      <point x="596" y="871" type="curve" smooth="yes"/>
      <point x="638" y="871"/>
      <point x="679" y="872"/>
      <point x="711" y="872" type="curve" smooth="yes"/>
      <point x="914" y="872"/>
      <point x="1040" y="978"/>
      <point x="1040" y="1180" type="curve" smooth="yes"/>
      <point x="1040" y="1366"/>
      <point x="890" y="1460"/>
      <point x="691" y="1460" type="curve" smooth="yes"/>
      <point x="631" y="1460" type="line" smooth="yes"/>
      <point x="574" y="1460"/>
      <point x="504" y="1458"/>
      <point x="472" y="1445" type="curve"/>
    </contour>
    <contour>
      <point x="470" y="135" type="line"/>
      <point x="505" y="113"/>
      <point x="638" y="96"/>
      <point x="723" y="96" type="curve" smooth="yes"/>
      <point x="942" y="96"/>
      <point x="1118" y="181"/>
      <point x="1118" y="418" type="curve" smooth="yes"/>
      <point x="1118" y="649"/>
      <point x="992" y="750"/>
      <point x="741" y="750" type="curve" smooth="yes"/>
      <point x="701" y="750"/>
      <point x="659" y="751"/>
      <point x="618" y="751" type="curve" smooth="yes"/>
      <point x="563" y="751"/>
      <point x="511" y="750"/>
      <point x="470" y="745" type="curve"/>
    </contour>
  </outline>
</glyph>
<glyph name="C" format="1">
  <advance width="1410"/>
  <unicode hex="0043"/>
  <outline>
    <contour>
      <point x="86" y="724" type="curve" smooth="yes"/>
      <point x="86" y="1240"/>
      <point x="465" y="1567"/>
      <point x="892" y="1567" type="curve" smooth="yes"/>
      <point x="1085" y="1567"/>
      <point x="1222" y="1515"/>
      <point x="1309" y="1496" type="curve"/>
      <point x="1293" y="1206" type="line"/>
      <point x="1187" y="1206" type="line"/>
      <point x="1135" y="1373" type="line"/>
      <point x="1051" y="1430"/>
      <point x="968" y="1451"/>
      <point x="829" y="1451" type="curve" smooth="yes"/>
      <point x="544" y="1451"/>
      <point x="290" y="1211"/>
      <point x="290" y="786" type="curve" smooth="yes"/>
      <point x="290" y="408"/>
      <point x="482" y="77"/>
      <point x="847" y="77" type="curve" smooth="yes"/>
      <point x="1008" y="77"/>
      <point x="1107" y="121"/>
      <point x="1167" y="197" type="curve"/>
      <point x="1225" y="351" type="line"/>
      <point x="1255" y="351"/>
      <point x="1280" y="350"/>
      <point x="1310" y="350" type="curve"/>
      <point x="1310" y="63" type="line"/>
      <point x="1215" y="59"/>
      <point x="1087" y="-28"/>
      <point x="801" y="-28" type="curve" smooth="yes"/>
      <point x="388" y="-28"/>
      <point x="86" y="280"/>
    </contour>
  </outline>
</glyph>
<glyph name="D" format="1">
  <advance width="1593"/>
  <unicode hex="0044"/>
  <outline>
    <contour>
      <point x="106" y="0" type="curve"/>
      <point x="106" y="85" type="line"/>
      <point x="275" y="115" type="line"/>
      <point x="275" y="1437" type="line"/>
      <point x="110" y="1455" type="line"/>
      <point x="110" y="1553" type="line"/>
      <point x="373" y="1553" type="line" smooth="yes"/>
      <point x="551" y="1553"/>
      <point x="623" y="1567"/>
      <point x="749" y="1567" type="curve" smooth="yes"/>
      <point x="1267" y="1569"/>
      <point x="1503" y="1283"/>
      <point x="1503" y="817" type="curve" smooth="yes"/>
      <point x="1503" y="293"/>
      <point x="1156" y="-21"/>
      <point x="713" y="-10" type="curve" smooth="yes"/>
      <point x="615" y="-8"/>
      <point x="508" y="1"/>
      <point x="376" y="1" type="curve" smooth="yes"/>
      <point x="286" y="1"/>
      <point x="196" y="0"/>
    </contour>
    <contour>
      <point x="470" y="132" type="line"/>
      <point x="545" y="111"/>
      <point x="624" y="100"/>
      <point x="713" y="100" type="curve" smooth="yes"/>
      <point x="725" y="100"/>
      <point x="736" y="101"/>
      <point x="748" y="101" type="curve" smooth="yes"/>
      <point x="1041" y="109"/>
      <point x="1298" y="315"/>
      <point x="1298" y="768" type="curve" smooth="yes"/>
      <point x="1298" y="1239"/>
      <point x="1063" y="1465"/>
      <point x="689" y="1455" type="curve" smooth="yes"/>
      <point x="579" y="1452"/>
      <point x="531" y="1446"/>
      <point x="470" y="1435" type="curve"/>
    </contour>
  </outline>
</glyph>
<glyph name="G" format="1">
  <advance width="1536"/>
  <unicode hex="0047"/>
  <outline>
    <contour>
      <point x="86" y="724" type="curve" smooth="yes"/>
      <point x="86" y="1240"/>
      <point x="451" y="1567"/>
      <point x="888" y="1567" type="curve" smooth="yes"/>
      <point x="1138" y="1567"/>
      <point x="1277" y="1520"/>
      <point x="1347" y="1503" type="curve"/>
      <point x="1331" y="1213" type="line"/>
      <point x="1225" y="1213" type="line"/>
      <point x="1173" y="1380" type="line"/>
      <point x="1151" y="1406"/>
      <point x="1039" y="1454"/>
      <point x="825" y="1451" type="curve" smooth="yes"/>
      <point x="540" y="1447"/>
      <point x="290" y="1202"/>
      <point x="290" y="786" type="curve" smooth="yes"/>
      <point x="290" y="424"/>
      <point x="462" y="77"/>
      <point x="827" y="77" type="curve" smooth="yes"/>
      <point x="941" y="77"/>
      <point x="1079" y="96"/>
      <point x="1158" y="183" type="curve"/>
      <point x="1158" y="593" type="line"/>
      <point x="915" y="610" type="line"/>
      <point x="915" y="708" type="line"/>
      <point x="1476" y="708" type="line"/>
      <point x="1476" y="610" type="line"/>
      <point x="1353" y="592" type="line"/>
      <point x="1353" y="81" type="line"/>
      <point x="1265" y="76"/>
      <point x="1023" y="-28"/>
      <point x="781" y="-28" type="curve" smooth="yes"/>
      <point x="368" y="-28"/>
      <point x="86" y="290"/>
    </contour>
  </outline>
</glyph>
<glyph name="H" format="1">
  <advance width="1706"/>
  <unicode hex="0048"/>
  <outline>
    <contour>
      <point x="106" y="0" type="line"/>
      <point x="106" y="85" type="line"/>
      <point x="275" y="115" type="line"/>
      <point x="275" y="1437" type="line"/>
      <point x="110" y="1455" type="line"/>
      <point x="110" y="1553" type="line"/>
      <point x="633" y="1553" type="line"/>
      <point x="633" y="1455" type="line"/>
      <point x="470" y="1438" type="line"/>
      <point x="470" y="814" type="line"/>
      <point x="1237" y="814" type="line"/>
      <point x="1237" y="1438" type="line"/>
      <point x="1072" y="1455" type="line"/>
      <point x="1072" y="1553" type="line"/>
      <point x="1592" y="1553" type="line"/>
      <point x="1592" y="1455" type="line"/>
      <point x="1431" y="1438" type="line"/>
      <point x="1431" y="115" type="line"/>
      <point x="1603" y="85" type="line"/>
      <point x="1603" y="0" type="line"/>
      <point x="1065" y="0" type="line"/>
      <point x="1065" y="85" type="line"/>
      <point x="1237" y="114" type="line"/>
      <point x="1237" y="696" type="line"/>
      <point x="470" y="696" type="line"/>
      <point x="470" y="115" type="line"/>
      <point x="642" y="85" type="line"/>
      <point x="642" y="0" type="line"/>
    </contour>
  </outline>
</glyph>
<glyph name="J" format="1">
  <advance width="720"/>
  <unicode hex="004A"/>
  <outline>
    <contour>
      <point x="238" y="-59" type="curve"/>
      <point x="278" y="58"/>
      <point x="284" y="197"/>
      <point x="284" y="401" type="curve" smooth="yes"/>
      <point x="284" y="1438" type="line"/>
      <point x="119" y="1455" type="line"/>
      <point x="119" y="1553" type="line"/>
      <point x="642" y="1553" type="line"/>
      <point x="642" y="1455" type="line"/>
      <point x="479" y="1437" type="line"/>
      <point x="479" y="550" type="line" smooth="yes"/>
      <point x="479" y="484"/>
      <point x="480" y="420"/>
      <point x="480" y="358" type="curve" smooth="yes"/>
      <point x="480" y="244"/>
      <point x="477" y="139"/>
      <point x="460" y="49" type="curve"/>
      <point x="407" y="-214"/>
      <point x="177" y="-358"/>
      <point x="-34" y="-390" type="curve"/>
      <point x="-86" y="-319" type="line"/>
      <point x="63" y="-271"/>
      <point x="187" y="-187"/>
    </contour>
  </outline>
</glyph>
<glyph name="L" format="1">
  <advance width="1244"/>
  <unicode hex="004C"/>
  <outline>
    <contour>
      <point x="106" y="0" type="line"/>
      <point x="106" y="85" type="line"/>
      <point x="275" y="115" type="line"/>
      <point x="275" y="1427" type="line"/>
      <point x="110" y="1444" type="line"/>
      <point x="110" y="1553" type="line"/>
      <point x="648" y="1553" type="line"/>
      <point x="648" y="1444" type="line"/>
      <point x="471" y="1427" type="line"/>
      <point x="469" y="112" type="line"/>
      <point x="1004" y="136" type="line"/>
      <point x="1127" y="374" type="line"/>
      <point x="1214" y="331" type="line"/>
      <point x="1149" y="0" type="line"/>
    </contour>
  </outline>
</glyph>
<glyph name="M" format="1">
  <advance width="1977"/>
  <unicode hex="004D"/>
  <outline>
    <contour>
      <point x="77" y="0" type="line"/>
      <point x="77" y="85" type="line"/>
      <point x="249" y="114" type="line"/>
      <point x="349" y="1427" type="line"/>
      <point x="154" y="1444" type="line"/>
      <point x="154" y="1553" type="line"/>
      <point x="615" y="1553" type="line"/>
      <point x="975" y="463" type="line"/>
      <point x="1021" y="316" type="line"/>
      <point x="1067" y="467" type="line"/>
      <point x="1411" y="1553" type="line"/>
      <point x="1836" y="1553" type="line"/>
      <point x="1836" y="1444" type="line"/>
      <point x="1649" y="1427" type="line"/>
      <point x="1762" y="115" type="line"/>
      <point x="1934" y="85" type="line"/>
      <point x="1934" y="0" type="line"/>
      <point x="1414" y="0" type="line"/>
      <point x="1414" y="85" type="line"/>
      <point x="1578" y="114" type="line"/>
      <point x="1496" y="1050" type="line"/>
      <point x="1486" y="1396" type="line"/>
      <point x="1445" y="1233" type="line"/>
      <point x="1024" y="-15" type="line"/>
      <point x="957" y="-15" type="line"/>
      <point x="573" y="1079" type="line" smooth="yes"/>
      <point x="535" y="1187"/>
      <point x="499" y="1297"/>
      <point x="462" y="1406" type="curve"/>
      <point x="454" y="1064" type="line"/>
      <point x="405" y="115" type="line"/>
      <point x="595" y="85" type="line"/>
      <point x="595" y="0" type="line"/>
    </contour>
  </outline>
</glyph>
<glyph name="N" format="1">
  <advance width="1662"/>
  <unicode hex="004E"/>
  <outline>
    <contour>
      <point x="104" y="0" type="line"/>
      <point x="104" y="85" type="line"/>
      <point x="275" y="115" type="line"/>
      <point x="275" y="1427" type="line"/>
      <point x="110" y="1444" type="line"/>
      <point x="110" y="1553" type="line"/>
      <point x="465" y="1553" type="line"/>
      <point x="1134" y="458" type="line"/>
      <point x="1276" y="184" type="line"/>
      <point x="1276" y="1428" type="line"/>
      <point x="1112" y="1445" type="line"/>
      <point x="1112" y="1553" type="line"/>
      <point x="1585" y="1553" type="line"/>
      <point x="1585" y="1445" type="line"/>
      <point x="1419" y="1428" type="line"/>
      <point x="1419" y="0" type="line"/>
      <point x="1214" y="0" type="line"/>
      <point x="554" y="1040" type="line"/>
      <point x="418" y="1318" type="line"/>
      <point x="418" y="115" type="line"/>
      <point x="612" y="85" type="line"/>
      <point x="612" y="0" type="line"/>
    </contour>
  </outline>
</glyph>
<glyph name="S" format="1">
  <advance width="1229"/>
  <unicode hex="0053"/>
  <outline>
    <contour>
      <point x="154" y="61" type="curve"/>
      <point x="154" y="383" type="line"/>
      <point x="242" y="383" type="line"/>
      <point x="305" y="184" type="line"/>
      <point x="384" y="101"/>
      <point x="519" y="78"/>
      <point x="637" y="78" type="curve" smooth="yes"/>
      <point x="783" y="78"/>
      <point x="942" y="157"/>
      <point x="942" y="343" type="curve" smooth="yes"/>
      <point x="942" y="513"/>
      <point x="763" y="616"/>
      <point x="575" y="720" type="curve" smooth="yes"/>
      <point x="373" y="832"/>
      <point x="164" y="957"/>
      <point x="164" y="1181" type="curve" smooth="yes"/>
      <point x="164" y="1461"/>
      <point x="446" y="1567"/>
      <point x="645" y="1567" type="curve" smooth="yes"/>
      <point x="841" y="1567"/>
      <point x="973" y="1525"/>
      <point x="1032" y="1490" type="curve"/>
      <point x="1032" y="1213" type="line"/>
      <point x="947" y="1213" type="line"/>
      <point x="869" y="1405" type="line"/>
      <point x="822" y="1448"/>
      <point x="727" y="1469"/>
      <point x="630" y="1468" type="curve" smooth="yes"/>
      <point x="522" y="1467"/>
      <point x="345" y="1409"/>
      <point x="345" y="1214" type="curve" smooth="yes"/>
      <point x="345" y="1061"/>
      <point x="505" y="964"/>
      <point x="680" y="870" type="curve" smooth="yes"/>
      <point x="892" y="756"/>
      <point x="1126" y="631"/>
      <point x="1126" y="397" type="curve" smooth="yes"/>
      <point x="1126" y="98"/>
      <point x="885" y="-23"/>
      <point x="610" y="-23" type="curve" smooth="yes"/>
      <point x="411" y="-23"/>
      <point x="211" y="26"/>
    </contour>
  </outline>
</glyph>
<glyph name="T" format="1">
  <advance width="1270"/>
  <unicode hex="0054"/>
  <outline>
    <contour>
      <point x="309" y="0" type="line"/>
      <point x="309" y="85" type="line"/>
      <point x="554" y="115" type="line"/>
      <point x="554" y="1442" type="line"/>
      <point x="191" y="1422" type="line"/>
      <point x="121" y="1251" type="line"/>
      <point x="30" y="1249" type="line"/>
      <point x="55" y="1553" type="line"/>
      <point x="1246" y="1553" type="line"/>
      <point x="1244" y="1246" type="line"/>
      <point x="1162" y="1237" type="line"/>
      <point x="1110" y="1423" type="line"/>
      <point x="749" y="1442" type="line"/>
      <point x="749" y="115" type="line"/>
      <point x="1010" y="85" type="line"/>
      <point x="1010" y="0" type="line"/>
    </contour>
  </outline>
</glyph>
<glyph name="V" format="1">
  <advance width="1425"/>
  <unicode hex="0056"/>
  <outline>
    <contour>
      <point x="663" y="-20" type="line"/>
      <point x="137" y="1439" type="line"/>
      <point x="5" y="1455" type="line"/>
      <point x="5" y="1553" type="line"/>
      <point x="542" y="1553" type="line"/>
      <point x="542" y="1455" type="line"/>
      <point x="362" y="1437" type="line"/>
      <point x="701" y="413" type="line"/>
      <point x="770" y="195" type="line"/>
      <point x="830" y="415" type="line"/>
      <point x="1129" y="1438" type="line"/>
      <point x="964" y="1455" type="line"/>
      <point x="964" y="1552" type="line"/>
      <point x="1420" y="1552" type="line"/>
      <point x="1420" y="1455" type="line"/>
      <point x="1299" y="1439" type="line"/>
      <point x="813" y="-20" type="line"/>
    </contour>
  </outline>
</glyph>
<glyph name="Y" format="1">
  <advance width="1352"/>
  <unicode hex="0059"/>
  <outline>
    <contour>
      <point x="402" y="0" type="line"/>
      <point x="402" y="85" type="line"/>
      <point x="606" y="116" type="line"/>
      <point x="606" y="638" type="line"/>
      <point x="126" y="1438" type="line"/>
      <point x="12" y="1455" type="line"/>
      <point x="12" y="1553" type="line"/>
      <point x="504" y="1553" type="line"/>
      <point x="504" y="1455" type="line"/>
      <point x="350" y="1437" type="line"/>
      <point x="668" y="845" type="line"/>
      <point x="716" y="744" type="line"/>
      <point x="761" y="847" type="line"/>
      <point x="1049" y="1436" type="line"/>
      <point x="879" y="1455" type="line"/>
      <point x="879" y="1553" type="line"/>
      <point x="1339" y="1553" type="line"/>
      <point x="1339" y="1455" type="line"/>
      <point x="1209" y="1428" type="line"/>
      <point x="801" y="637" type="line"/>
      <point x="801" y="116" type="line"/>
      <point x="1015" y="85" type="line"/>
      <point x="1015" y="0" type="line"/>
    </contour>
  </outline>
</glyph>
<glyph name="bracketright" format="1">
  <advance width="855"/>
  <unicode hex="005D"/>
  <outline>
    <contour>
      <point x="201" y="-61" type="curve"/>
      <point x="492" y="-59" type="line"/>
      <point x="492" y="1607" type="line"/>
      <point x="201" y="1607" type="line"/>
      <point x="201" y="1636"/>
      <point x="200" y="1664"/>
      <point x="200" y="1693" type="curve"/>
      <point x="286" y="1714"/>
      <point x="356" y="1737"/>
      <point x="465" y="1737" type="curve" smooth="yes"/>
      <point x="619" y="1737"/>
      <point x="655" y="1683"/>
      <point x="655" y="1486" type="curve" smooth="yes"/>
      <point x="655" y="60" type="line" smooth="yes"/>
      <point x="655" y="-137"/>
      <point x="619" y="-191"/>
      <point x="465" y="-191" type="curve" smooth="yes"/>
      <point x="356" y="-191"/>
      <point x="286" y="-171"/>
      <point x="200" y="-147" type="curve"/>
      <point x="200" y="-118"/>
      <point x="201" y="-90"/>
    </contour>
  </outline>
</glyph>
<glyph name="asciicircum" format="1">
  <advance width="1320"/>
  <unicode hex="005E"/>
  <outline>
    <contour>
      <point x="178" y="564" type="curve"/>
      <point x="561" y="1531" type="line"/>
      <point x="758" y="1531" type="line"/>
      <point x="1142" y="564" type="line"/>
      <point x="1084" y="564"/>
      <point x="1025" y="563"/>
      <point x="967" y="563" type="curve"/>
      <point x="650" y="1326" type="line"/>
      <point x="333" y="563" type="line"/>
      <point x="281" y="563"/>
      <point x="230" y="564"/>
    </contour>
  </outline>
</glyph>
<glyph name="grave" format="1">
  <advance width="884"/>
  <unicode hex="0060"/>
  <outline>
    <contour>
      <point x="609" y="1340" type="line"/>
      <point x="500" y="1391"/>
      <point x="302" y="1508"/>
      <point x="222" y="1631" type="curve"/>
      <point x="368" y="1780" type="line"/>
      <point x="662" y="1394" type="line"/>
    </contour>
  </outline>
</glyph>
<glyph name="b" format="1">
  <advance width="1264"/>
  <unicode hex="0062"/>
  <outline>
    <contour>
      <point x="203" y="50" type="curve"/>
      <point x="203" y="1466" type="line"/>
      <point x="32" y="1502" type="line"/>
      <point x="32" y="1589" type="line"/>
      <point x="355" y="1625" type="line"/>
      <point x="395" y="1608" type="line"/>
      <point x="395" y="1024" type="line"/>
      <point x="466" y="1086"/>
      <point x="566" y="1153"/>
      <point x="720" y="1153" type="curve" smooth="yes"/>
      <point x="944" y="1153"/>
      <point x="1164" y="1004"/>
      <point x="1164" y="605" type="curve" smooth="yes"/>
      <point x="1164" y="263"/>
      <point x="935" y="-28"/>
      <point x="598" y="-28" type="curve" smooth="yes"/>
      <point x="410" y="-28"/>
      <point x="231" y="21"/>
    </contour>
    <contour>
      <point x="395" y="158" type="line"/>
      <point x="416" y="102"/>
      <point x="506" y="77"/>
      <point x="621" y="77" type="curve" smooth="yes"/>
      <point x="795" y="77"/>
      <point x="968" y="227"/>
      <point x="973" y="569" type="curve" smooth="yes"/>
      <point x="978" y="890"/>
      <point x="807" y="1014"/>
      <point x="640" y="1014" type="curve" smooth="yes"/>
      <point x="524" y="1014"/>
      <point x="439" y="959"/>
      <point x="395" y="920" type="curve"/>
    </contour>
  </outline>
</glyph>
<glyph name="i" format="1">
  <advance width="683"/>
  <unicode hex="0069"/>
  <outline>
    <contour>
      <point x="333" y="1375" type="curve" smooth="yes"/>
      <point x="268" y="1375"/>
      <point x="207" y="1421"/>
      <point x="207" y="1498" type="curve" smooth="yes"/>
      <point x="207" y="1581"/>
      <point x="285" y="1644"/>
      <point x="356" y="1644" type="curve" smooth="yes"/>
      <point x="444" y="1644"/>
      <point x="483" y="1588"/>
      <point x="483" y="1520" type="curve" smooth="yes"/>
      <point x="483" y="1432"/>
      <point x="408" y="1375"/>
    </contour>
    <contour>
      <point x="112" y="0" type="line"/>
      <point x="112" y="85" type="line"/>
      <point x="282" y="106" type="line"/>
      <point x="282" y="925" type="line"/>
      <point x="144" y="998" type="line"/>
      <point x="144" y="1060" type="line"/>
      <point x="421" y="1139" type="line"/>
      <point x="466" y="1119" type="line"/>
      <point x="466" y="106" type="line"/>
      <point x="628" y="85" type="line"/>
      <point x="628" y="0" type="line"/>
    </contour>
  </outline>
</glyph>
<glyph name="j" format="1">
  <advance width="650"/>
  <unicode hex="006A"/>
  <outline>
    <contour>
      <point x="326" y="1404" type="curve" smooth="yes"/>
      <point x="261" y="1404"/>
      <point x="200" y="1450"/>
      <point x="200" y="1527" type="curve" smooth="yes"/>
      <point x="200" y="1610"/>
      <point x="278" y="1673"/>
      <point x="349" y="1673" type="curve" smooth="yes"/>
      <point x="437" y="1673"/>
      <point x="476" y="1617"/>
      <point x="476" y="1549" type="curve" smooth="yes"/>
      <point x="476" y="1461"/>
      <point x="401" y="1404"/>
    </contour>
    <contour>
      <point x="275" y="-2" type="curve" smooth="yes"/>
      <point x="275" y="925" type="line"/>
      <point x="136" y="999" type="line"/>
      <point x="136" y="1059" type="line"/>
      <point x="417" y="1139" type="line"/>
      <point x="463" y="1119" type="line"/>
      <point x="463" y="-16" type="line" smooth="yes"/>
      <point x="463" y="-328"/>
      <point x="321" y="-515"/>
      <point x="100" y="-515" type="curve" smooth="yes"/>
      <point x="73" y="-515"/>
      <point x="2" y="-509"/>
      <point x="-9" y="-500" type="curve"/>
      <point x="-9" y="-362" type="line"/>
      <point x="13" y="-369"/>
      <point x="77" y="-373"/>
      <point x="101" y="-373" type="curve" smooth="yes"/>
      <point x="230" y="-373"/>
      <point x="275" y="-281"/>
    </contour>
  </outline>
</glyph>
<glyph name="l" format="1">
  <advance width="698"/>
  <unicode hex="006C"/>
  <outline>
    <contour>
      <point x="108" y="0" type="line"/>
      <point x="108" y="85" type="line"/>
      <point x="278" y="106" type="line"/>
      <point x="278" y="1460" type="line"/>
      <point x="118" y="1496" type="line"/>
      <point x="118" y="1583" type="line"/>
      <point x="431" y="1625" type="line"/>
      <point x="471" y="1602" type="line"/>
      <point x="471" y="106" type="line"/>
      <point x="649" y="85" type="line"/>
      <point x="649" y="0" type="line"/>
    </contour>
  </outline>
</glyph>
<glyph name="m" format="1">
  <advance width="2070"/>
  <unicode hex="006D"/>
  <outline>
    <contour>
      <point x="138" y="0" type="line"/>
      <point x="138" y="85" type="line"/>
      <point x="274" y="107" type="line"/>
      <point x="274" y="920" type="line"/>
      <point x="132" y="998" type="line"/>
      <point x="132" y="1060" type="line"/>
      <point x="398" y="1139" type="line"/>
      <point x="443" y="1119" type="line"/>
      <point x="443" y="976" type="line"/>
      <point x="532" y="1054"/>
      <point x="703" y="1135"/>
      <point x="840" y="1139" type="curve" smooth="yes"/>
      <point x="983" y="1144"/>
      <point x="1069" y="1105"/>
      <point x="1118" y="997" type="curve"/>
      <point x="1214" y="1070"/>
      <point x="1391" y="1135"/>
      <point x="1518" y="1139" type="curve" smooth="yes"/>
      <point x="1767" y="1147"/>
      <point x="1851" y="1005"/>
      <point x="1851" y="661" type="curve" smooth="yes"/>
      <point x="1851" y="106" type="line"/>
      <point x="2020" y="85" type="line"/>
      <point x="2020" y="0" type="line"/>
      <point x="1523" y="0" type="line"/>
      <point x="1523" y="85" type="line"/>
      <point x="1659" y="106" type="line"/>
      <point x="1659" y="626" type="line" smooth="yes"/>
      <point x="1659" y="881"/>
      <point x="1621" y="1002"/>
      <point x="1418" y="993" type="curve" smooth="yes"/>
      <point x="1328" y="989"/>
      <point x="1237" y="957"/>
      <point x="1151" y="908" type="curve"/>
      <point x="1165" y="845"/>
      <point x="1174" y="758"/>
      <point x="1174" y="671" type="curve" smooth="yes"/>
      <point x="1174" y="105" type="line"/>
      <point x="1327" y="85" type="line"/>
      <point x="1327" y="0" type="line"/>
      <point x="832" y="0" type="line"/>
      <point x="832" y="85" type="line"/>
      <point x="982" y="107" type="line"/>
      <point x="982" y="642" type="line" smooth="yes"/>
      <point x="982" y="896"/>
      <point x="941" y="1002"/>
      <point x="738" y="993" type="curve" smooth="yes"/>
      <point x="666" y="989"/>
      <point x="570" y="958"/>
      <point x="469" y="889" type="curve"/>
      <point x="469" y="706" type="line" smooth="yes"/>
      <point x="469" y="546"/>
      <point x="468" y="386"/>
      <point x="468" y="226" type="curve" smooth="yes"/>
      <point x="468" y="106" type="line"/>
      <point x="617" y="85" type="line"/>
      <point x="617" y="0" type="line"/>
    </contour>
  </outline>
</glyph>
<glyph name="q" format="1">
  <advance width="1242"/>
  <unicode hex="0071"/>
  <outline>
    <contour>
      <point x="536" y="-28" type="curve" smooth="yes"/>
      <point x="393" y="-28"/>
      <point x="100" y="47"/>
      <point x="100" y="546" type="curve" smooth="yes"/>
      <point x="100" y="886"/>
      <point x="345" y="1153"/>
      <point x="692" y="1153" type="curve" smooth="yes"/>
      <point x="771" y="1153"/>
      <point x="855" y="1135"/>
      <point x="901" y="1117" type="curve"/>
      <point x="1021" y="1140" type="line"/>
      <point x="1061" y="1120" type="line"/>
      <point x="1061" y="-395" type="line"/>
      <point x="1197" y="-416" type="line"/>
      <point x="1197" y="-511" type="line"/>
      <point x="663" y="-511" type="line"/>
      <point x="663" y="-416" type="line"/>
      <point x="869" y="-395" type="line"/>
      <point x="869" y="-47" type="line"/>
      <point x="875" y="106" type="line"/>
      <point x="829" y="60"/>
      <point x="719" y="-28"/>
    </contour>
    <contour>
      <point x="606" y="111" type="curve" smooth="yes"/>
      <point x="732" y="111"/>
      <point x="825" y="159"/>
      <point x="869" y="205" type="curve"/>
      <point x="869" y="966" type="line"/>
      <point x="823" y="1025"/>
      <point x="747" y="1046"/>
      <point x="660" y="1046" type="curve" smooth="yes"/>
      <point x="456" y="1046"/>
      <point x="296" y="890"/>
      <point x="291" y="579" type="curve" smooth="yes"/>
      <point x="286" y="271"/>
      <point x="412" y="111"/>
    </contour>
  </outline>
</glyph>
<glyph name="r" format="1">
  <advance width="923"/>
  <unicode hex="0072"/>
  <outline>
    <contour>
      <point x="112" y="0" type="line"/>
      <point x="112" y="85" type="line"/>
      <point x="274" y="106" type="line"/>
      <point x="274" y="920" type="line"/>
      <point x="132" y="998" type="line"/>
      <point x="132" y="1060" type="line"/>
      <point x="396" y="1139" type="line"/>
      <point x="443" y="1119" type="line"/>
      <point x="443" y="965" type="line"/>
      <point x="493" y="1041"/>
      <point x="663" y="1139"/>
      <point x="785" y="1139" type="curve" smooth="yes"/>
      <point x="829" y="1139"/>
      <point x="867" y="1137"/>
      <point x="882" y="1132" type="curve"/>
      <point x="882" y="927" type="line"/>
      <point x="839" y="944"/>
      <point x="797" y="961"/>
      <point x="705" y="961" type="curve" smooth="yes"/>
      <point x="597" y="961"/>
      <point x="529" y="929"/>
      <point x="468" y="891" type="curve"/>
      <point x="468" y="109" type="line"/>
      <point x="753" y="85" type="line"/>
      <point x="753" y="0" type="line"/>
    </contour>
  </outline>
</glyph>
<glyph name="s" format="1">
  <advance width="1048"/>
  <unicode hex="0073"/>
  <outline>
    <contour>
      <point x="168" y="61" type="curve"/>
      <point x="168" y="290" type="line"/>
      <point x="257" y="290" type="line"/>
      <point x="296" y="168" type="line"/>
      <point x="364" y="111"/>
      <point x="421" y="88"/>
      <point x="514" y="84" type="curve" smooth="yes"/>
      <point x="664" y="78"/>
      <point x="770" y="140"/>
      <point x="770" y="272" type="curve" smooth="yes"/>
      <point x="770" y="393"/>
      <point x="628" y="433"/>
      <point x="486" y="501" type="curve" smooth="yes"/>
      <point x="328" y="577"/>
      <point x="173" y="672"/>
      <point x="176" y="850" type="curve" smooth="yes"/>
      <point x="180" y="1057"/>
      <point x="397" y="1147"/>
      <point x="575" y="1152" type="curve" smooth="yes"/>
      <point x="708" y="1156"/>
      <point x="827" y="1118"/>
      <point x="887" y="1083" type="curve"/>
      <point x="887" y="869" type="line"/>
      <point x="802" y="869" type="line"/>
      <point x="759" y="981" type="line"/>
      <point x="722" y="1020"/>
      <point x="674" y="1051"/>
      <point x="586" y="1052" type="curve" smooth="yes"/>
      <point x="458" y="1053"/>
      <point x="364" y="1003"/>
      <point x="361" y="884" type="curve" smooth="yes"/>
      <point x="357" y="764"/>
      <point x="499" y="714"/>
      <point x="639" y="645" type="curve"/>
      <point x="787" y="577"/>
      <point x="954" y="505"/>
      <point x="954" y="318" type="curve" smooth="yes"/>
      <point x="954" y="92"/>
      <point x="760" y="-24"/>
      <point x="517" y="-24" type="curve" smooth="yes"/>
      <point x="397" y="-24"/>
      <point x="269" y="5"/>
    </contour>
  </outline>
</glyph>
<glyph name="t" format="1">
  <advance width="862"/>
  <unicode hex="0074"/>
  <outline>
    <contour>
      <point x="264" y="262" type="curve" smooth="yes"/>
      <point x="264" y="506"/>
      <point x="265" y="749"/>
      <point x="265" y="993" type="curve"/>
      <point x="112" y="993" type="line"/>
      <point x="112" y="1068" type="line"/>
      <point x="229" y="1098"/>
      <point x="262" y="1094"/>
      <point x="291" y="1160" type="curve" smooth="yes"/>
      <point x="311" y="1206"/>
      <point x="350" y="1352"/>
      <point x="354" y="1386" type="curve"/>
      <point x="453" y="1386" type="line"/>
      <point x="453" y="1119" type="line"/>
      <point x="789" y="1119" type="line"/>
      <point x="789" y="993" type="line"/>
      <point x="453" y="993" type="line"/>
      <point x="453" y="489" type="line" smooth="yes"/>
      <point x="453" y="180"/>
      <point x="462" y="117"/>
      <point x="570" y="117" type="curve" smooth="yes"/>
      <point x="638" y="117"/>
      <point x="740" y="146"/>
      <point x="773" y="166" type="curve"/>
      <point x="804" y="78" type="line"/>
      <point x="744" y="12"/>
      <point x="585" y="-24"/>
      <point x="493" y="-24" type="curve" smooth="yes"/>
      <point x="348" y="-24"/>
      <point x="264" y="59"/>
    </contour>
  </outline>
</glyph>
<glyph name="cent" format="1">
  <advance width="1117"/>
  <unicode hex="00A2"/>
  <outline>
    <contour>
      <point x="514" y="-13" type="line"/>
      <point x="264" y="29"/>
      <point x="126" y="250"/>
      <point x="124" y="538" type="curve" smooth="yes"/>
      <point x="122" y="877"/>
      <point x="327" y="1101"/>
      <point x="600" y="1142" type="curve"/>
      <point x="613" y="1362" type="line"/>
      <point x="737" y="1362" type="line"/>
      <point x="725" y="1149" type="line"/>
      <point x="820" y="1146"/>
      <point x="914" y="1128"/>
      <point x="958" y="1099" type="curve"/>
      <point x="958" y="859" type="line"/>
      <point x="863" y="859" type="line"/>
      <point x="812" y="985" type="line"/>
      <point x="769" y="1020"/>
      <point x="696" y="1033"/>
      <point x="648" y="1033" type="curve" smooth="yes"/>
      <point x="470" y="1033"/>
      <point x="310" y="901"/>
      <point x="308" y="626" type="curve" smooth="yes"/>
      <point x="305" y="263"/>
      <point x="504" y="116"/>
      <point x="672" y="116" type="curve" smooth="yes"/>
      <point x="775" y="116"/>
      <point x="904" y="144"/>
      <point x="960" y="177" type="curve"/>
      <point x="994" y="88" type="line"/>
      <point x="921" y="24"/>
      <point x="779" y="-15"/>
      <point x="638" y="-20" type="curve"/>
      <point x="627" y="-216" type="line"/>
      <point x="503" y="-216" type="line"/>
    </contour>
  </outline>
</glyph>
<glyph name="currency" format="1">
  <advance width="1436"/>
  <unicode hex="00A4"/>
  <outline>
    <contour>
      <point x="228" y="283" type="line"/>
      <point x="406" y="461" type="line"/>
      <point x="358" y="525"/>
      <point x="330" y="604"/>
      <point x="330" y="690" type="curve" smooth="yes"/>
      <point x="330" y="774"/>
      <point x="358" y="852"/>
      <point x="404" y="915" type="curve"/>
      <point x="225" y="1095" type="line"/>
      <point x="310" y="1181" type="line"/>
      <point x="491" y="999" type="line"/>
      <point x="553" y="1042"/>
      <point x="628" y="1068"/>
      <point x="710" y="1068" type="curve" smooth="yes"/>
      <point x="798" y="1068"/>
      <point x="880" y="1038"/>
      <point x="944" y="987" type="curve"/>
      <point x="1126" y="1168" type="line"/>
      <point x="1211" y="1082" type="line"/>
      <point x="1027" y="898" type="line"/>
      <point x="1067" y="839"/>
      <point x="1090" y="767"/>
      <point x="1090" y="690" type="curve" smooth="yes"/>
      <point x="1090" y="607"/>
      <point x="1063" y="530"/>
      <point x="1018" y="468" type="curve"/>
      <point x="1199" y="288" type="line"/>
      <point x="1113" y="203" type="line"/>
      <point x="932" y="383" type="line"/>
      <point x="870" y="338"/>
      <point x="793" y="312"/>
      <point x="710" y="312" type="curve" smooth="yes"/>
      <point x="630" y="312"/>
      <point x="556" y="336"/>
      <point x="494" y="378" type="curve"/>
      <point x="314" y="198" type="line"/>
    </contour>
    <contour>
      <point x="473" y="690" type="curve" smooth="yes"/>
      <point x="473" y="555"/>
      <point x="579" y="443"/>
      <point x="710" y="443" type="curve" smooth="yes"/>
      <point x="841" y="443"/>
      <point x="947" y="555"/>
      <point x="947" y="690" type="curve" smooth="yes"/>
      <point x="947" y="825"/>
      <point x="841" y="937"/>
      <point x="710" y="937" type="curve" smooth="yes"/>
      <point x="579" y="937"/>
      <point x="473" y="825"/>
    </contour>
  </outline>
</glyph>
<glyph name="yen" format="1">
  <advance width="1407"/>
  <unicode hex="00A5"/>
  <outline>
    <contour>
      <point x="413" y="0" type="line"/>
      <point x="413" y="85" type="line"/>
      <point x="607" y="115" type="line"/>
      <point x="607" y="377" type="line"/>
      <point x="182" y="377" type="line"/>
      <point x="182" y="504" type="line"/>
      <point x="607" y="504" type="line"/>
      <point x="607" y="734" type="line"/>
      <point x="182" y="734" type="line"/>
      <point x="182" y="861" type="line"/>
      <point x="542" y="861" type="line"/>
      <point x="162" y="1437" type="line"/>
      <point x="32" y="1455" type="line"/>
      <point x="32" y="1553" type="line"/>
      <point x="535" y="1553" type="line"/>
      <point x="535" y="1455" type="line"/>
      <point x="386" y="1438" type="line"/>
      <point x="669" y="975" type="line"/>
      <point x="718" y="861" type="line"/>
      <point x="745" y="861" type="line"/>
      <point x="807" y="983" type="line"/>
      <point x="891" y="1128"/>
      <point x="979" y="1289"/>
      <point x="1066" y="1438" type="curve"/>
      <point x="918" y="1455" type="line"/>
      <point x="918" y="1553" type="line"/>
      <point x="1374" y="1553" type="line"/>
      <point x="1374" y="1455" type="line"/>
      <point x="1233" y="1426" type="line"/>
      <point x="873" y="861" type="line"/>
      <point x="1210" y="861" type="line"/>
      <point x="1210" y="734" type="line"/>
      <point x="802" y="734" type="line"/>
      <point x="802" y="504" type="line"/>
      <point x="1210" y="504" type="line"/>
      <point x="1210" y="377" type="line"/>
      <point x="802" y="377" type="line"/>
      <point x="802" y="116" type="line"/>
      <point x="1006" y="85" type="line"/>
      <point x="1006" y="0" type="line"/>
    </contour>
  </outline>
</glyph>
<glyph name="section" format="1">
  <advance width="1327"/>
  <unicode hex="00A7"/>
  <outline>
    <contour>
      <point x="170" y="140" type="line"/>
      <point x="256" y="140" type="line"/>
      <point x="321" y="-54" type="line"/>
      <point x="412" y="-154"/>
      <point x="534" y="-161"/>
      <point x="653" y="-161" type="curve" smooth="yes"/>
      <point x="790" y="-161"/>
      <point x="956" y="-102"/>
      <point x="956" y="76" type="curve" smooth="yes"/>
      <point x="956" y="430"/>
      <point x="189" y="412"/>
      <point x="189" y="839" type="curve" smooth="yes"/>
      <point x="189" y="945"/>
      <point x="231" y="1065"/>
      <point x="294" y="1137" type="curve"/>
      <point x="239" y="1195"/>
      <point x="204" y="1266"/>
      <point x="204" y="1358" type="curve" smooth="yes"/>
      <point x="204" y="1645"/>
      <point x="494" y="1773"/>
      <point x="693" y="1773" type="curve" smooth="yes"/>
      <point x="889" y="1773"/>
      <point x="1024" y="1731"/>
      <point x="1083" y="1696" type="curve"/>
      <point x="1083" y="1419" type="line"/>
      <point x="998" y="1419" type="line"/>
      <point x="920" y="1611" type="line"/>
      <point x="886" y="1650"/>
      <point x="784" y="1671"/>
      <point x="681" y="1671" type="curve" smooth="yes"/>
      <point x="573" y="1671"/>
      <point x="388" y="1599"/>
      <point x="388" y="1397" type="curve" smooth="yes"/>
      <point x="388" y="1059"/>
      <point x="1157" y="1083"/>
      <point x="1157" y="655" type="curve" smooth="yes"/>
      <point x="1157" y="542"/>
      <point x="1122" y="417"/>
      <point x="1064" y="341" type="curve"/>
      <point x="1112" y="286"/>
      <point x="1142" y="220"/>
      <point x="1142" y="136" type="curve" smooth="yes"/>
      <point x="1142" y="-156"/>
      <point x="901" y="-266"/>
      <point x="626" y="-266" type="curve" smooth="yes"/>
      <point x="427" y="-266"/>
      <point x="227" y="-217"/>
      <point x="170" y="-182" type="curve"/>
    </contour>
    <contour>
      <point x="373" y="878" type="curve" smooth="yes"/>
      <point x="373" y="652"/>
      <point x="715" y="588"/>
      <point x="943" y="443" type="curve"/>
      <point x="960" y="490"/>
      <point x="971" y="548"/>
      <point x="971" y="595" type="curve" smooth="yes"/>
      <point x="971" y="828"/>
      <point x="637" y="900"/>
      <point x="410" y="1044" type="curve"/>
      <point x="387" y="995"/>
      <point x="373" y="932"/>
    </contour>
  </outline>
</glyph>
<glyph name="ordfeminine" format="1">
  <advance width="964"/>
  <unicode hex="00AA"/>
  <outline>
    <contour>
      <point x="323" y="736" type="curve" smooth="yes"/>
      <point x="234" y="736"/>
      <point x="80" y="808"/>
      <point x="80" y="975" type="curve" smooth="yes"/>
      <point x="80" y="1216"/>
      <point x="344" y="1259"/>
      <point x="624" y="1259" type="curve"/>
      <point x="624" y="1285" type="line"/>
      <point x="625" y="1455"/>
      <point x="535" y="1470"/>
      <point x="410" y="1470" type="curve" smooth="yes"/>
      <point x="307" y="1470"/>
      <point x="211" y="1446"/>
      <point x="163" y="1409" type="curve"/>
      <point x="125" y="1497" type="line"/>
      <point x="184" y="1551"/>
      <point x="337" y="1593"/>
      <point x="466" y="1593" type="curve" smooth="yes"/>
      <point x="658" y="1593"/>
      <point x="800" y="1557"/>
      <point x="799" y="1297" type="curve" smooth="yes"/>
      <point x="797" y="839" type="line"/>
      <point x="884" y="839" type="line"/>
      <point x="884" y="763" type="line"/>
      <point x="849" y="749"/>
      <point x="768" y="730"/>
      <point x="718" y="730" type="curve" smooth="yes"/>
      <point x="668" y="730"/>
      <point x="629" y="742"/>
      <point x="629" y="824" type="curve" smooth="yes"/>
      <point x="629" y="839" type="line"/>
      <point x="584" y="800"/>
      <point x="496" y="736"/>
    </contour>
    <contour>
      <point x="399" y="853" type="curve" smooth="yes"/>
      <point x="468" y="853"/>
      <point x="573" y="876"/>
      <point x="622" y="922" type="curve"/>
      <point x="623" y="1168" type="line"/>
      <point x="415" y="1168"/>
      <point x="267" y="1132"/>
      <point x="267" y="1008" type="curve" smooth="yes"/>
      <point x="267" y="907"/>
      <point x="328" y="853"/>
    </contour>
  </outline>
</glyph>
<glyph name="guillemotleft" format="1">
  <advance width="1897"/>
  <unicode hex="00AB"/>
  <outline>
    <contour>
      <point x="953" y="528" type="line"/>
      <point x="953" y="693" type="line"/>
      <point x="1601" y="1075" type="line"/>
      <point x="1652" y="990" type="line"/>
      <point x="1138" y="614" type="line"/>
      <point x="1652" y="254" type="line"/>
      <point x="1601" y="163" type="line"/>
    </contour>
    <contour>
      <point x="245" y="528" type="line"/>
      <point x="245" y="693" type="line"/>
      <point x="893" y="1075" type="line"/>
      <point x="944" y="990" type="line"/>
      <point x="430" y="614" type="line"/>
      <point x="944" y="254" type="line"/>
      <point x="893" y="163" type="line"/>
    </contour>
  </outline>
</glyph>
<glyph name="plusminus" format="1">
  <advance width="1269"/>
  <unicode hex="00B1"/>
  <outline>
    <contour>
      <point x="557" y="321" type="line"/>
      <point x="557" y="561" type="line"/>
      <point x="564" y="727" type="line"/>
      <point x="398" y="720" type="line"/>
      <point x="178" y="720" type="line"/>
      <point x="178" y="875" type="line"/>
      <point x="398" y="875" type="line"/>
      <point x="564" y="863" type="line"/>
      <point x="557" y="1032" type="line"/>
      <point x="557" y="1260" type="line"/>
      <point x="712" y="1260" type="line"/>
      <point x="712" y="1032" type="line"/>
      <point x="703" y="863" type="line"/>
      <point x="840" y="875" type="line"/>
      <point x="1091" y="875" type="line"/>
      <point x="1091" y="720" type="line"/>
      <point x="840" y="720" type="line"/>
      <point x="703" y="727" type="line"/>
      <point x="712" y="561" type="line"/>
      <point x="712" y="321" type="line"/>
    </contour>
    <contour>
      <point x="191" y="30" type="line"/>
      <point x="191" y="177" type="line"/>
      <point x="1076" y="177" type="line"/>
      <point x="1076" y="30" type="line"/>
    </contour>
  </outline>
</glyph>
<glyph name="twosuperior" format="1">
  <advance width="1256"/>
  <unicode hex="00B2"/>
  <outline>
    <contour>
      <point x="187" y="720" type="line"/>
      <point x="144" y="836" type="line"/>
      <point x="296" y="914"/>
      <point x="774" y="1186"/>
      <point x="774" y="1388" type="curve" smooth="yes"/>
      <point x="774" y="1532"/>
      <point x="668" y="1580"/>
      <point x="554" y="1580" type="curve" smooth="yes"/>
      <point x="440" y="1580"/>
      <point x="297" y="1518"/>
      <point x="217" y="1416" type="curve"/>
      <point x="143" y="1503" type="line"/>
      <point x="206" y="1603"/>
      <point x="389" y="1729"/>
      <point x="598" y="1729" type="curve" smooth="yes"/>
      <point x="923" y="1729"/>
      <point x="994" y="1551"/>
      <point x="994" y="1453" type="curve" smooth="yes"/>
      <point x="994" y="1197"/>
      <point x="725" y="1028"/>
      <point x="371" y="840" type="curve"/>
      <point x="890" y="878" type="line"/>
      <point x="1009" y="1018" type="line"/>
      <point x="1112" y="976" type="line"/>
      <point x="1056" y="720" type="line"/>
    </contour>
  </outline>
</glyph>
<glyph name="threesuperior" format="1">
  <advance width="1145"/>
  <unicode hex="00B3"/>
  <outline>
    <contour>
      <point x="225" y="674" type="curve"/>
      <point x="225" y="784" type="line"/>
      <point x="303" y="754"/>
      <point x="423" y="731"/>
      <point x="506" y="732" type="curve" smooth="yes"/>
      <point x="703" y="734"/>
      <point x="796" y="828"/>
      <point x="796" y="946" type="curve" smooth="yes"/>
      <point x="796" y="1062"/>
      <point x="702" y="1118"/>
      <point x="582" y="1120" type="curve"/>
      <point x="385" y="1080" type="line"/>
      <point x="385" y="1200" type="line"/>
      <point x="603" y="1243"/>
      <point x="670" y="1310"/>
      <point x="706" y="1401" type="curve" smooth="yes"/>
      <point x="715" y="1424"/>
      <point x="716" y="1450"/>
      <point x="715" y="1474" type="curve" smooth="yes"/>
      <point x="712" y="1555"/>
      <point x="607" y="1591"/>
      <point x="530" y="1588" type="curve" smooth="yes"/>
      <point x="430" y="1584"/>
      <point x="304" y="1544"/>
      <point x="238" y="1496" type="curve"/>
      <point x="189" y="1586" type="line"/>
      <point x="250" y="1634"/>
      <point x="398" y="1699"/>
      <point x="531" y="1713" type="curve" smooth="yes"/>
      <point x="553" y="1715"/>
      <point x="574" y="1716"/>
      <point x="594" y="1716" type="curve" smooth="yes"/>
      <point x="799" y="1716"/>
      <point x="915" y="1600"/>
      <point x="915" y="1469" type="curve" smooth="yes"/>
      <point x="915" y="1349"/>
      <point x="841" y="1258"/>
      <point x="689" y="1203" type="curve"/>
      <point x="928" y="1215"/>
      <point x="993" y="1030"/>
      <point x="993" y="939" type="curve" smooth="yes"/>
      <point x="993" y="751"/>
      <point x="823" y="606"/>
      <point x="531" y="606" type="curve" smooth="yes"/>
      <point x="451" y="606"/>
      <point x="322" y="628"/>
    </contour>
  </outline>
</glyph>
<glyph name="acute" format="1">
  <advance width="884"/>
  <unicode hex="00B4"/>
  <outline>
    <contour>
      <point x="275" y="1340" type="curve"/>
      <point x="222" y="1394" type="line"/>
      <point x="516" y="1780" type="line"/>
      <point x="662" y="1631" type="line"/>
      <point x="582" y="1508"/>
      <point x="384" y="1391"/>
    </contour>
  </outline>
</glyph>
<glyph name="mu" format="1">
  <advance width="1415"/>
  <unicode hex="00B5"/>
  <unicode hex="03bc"/>
  <outline>
    <contour>
      <point x="453" y="-2" type="curve"/>
      <point x="453" y="-373" type="line"/>
      <point x="264" y="-373" type="line"/>
      <point x="264" y="977" type="line"/>
      <point x="161" y="1007" type="line"/>
      <point x="161" y="1084" type="line"/>
      <point x="418" y="1139" type="line"/>
      <point x="453" y="1121" type="line"/>
      <point x="453" y="432" type="line" smooth="yes"/>
      <point x="453" y="211"/>
      <point x="494" y="116"/>
      <point x="669" y="116" type="curve" smooth="yes"/>
      <point x="788" y="116"/>
      <point x="910" y="192"/>
      <point x="945" y="229" type="curve"/>
      <point x="945" y="968" type="line"/>
      <point x="820" y="1000" type="line"/>
      <point x="820" y="1082" type="line"/>
      <point x="1106" y="1139" type="line"/>
      <point x="1134" y="1122" type="line"/>
      <point x="1134" y="85" type="line"/>
      <point x="1254" y="85" type="line"/>
      <point x="1254" y="9" type="line"/>
      <point x="1215" y="-12"/>
      <point x="1130" y="-34"/>
      <point x="1067" y="-34" type="curve" smooth="yes"/>
      <point x="1003" y="-34"/>
      <point x="964" y="-7"/>
      <point x="964" y="52" type="curve" smooth="yes"/>
      <point x="964" y="134" type="line"/>
      <point x="849" y="29"/>
      <point x="715" y="-21"/>
      <point x="595" y="-21" type="curve" smooth="yes"/>
      <point x="538" y="-21"/>
      <point x="492" y="-14"/>
    </contour>
  </outline>
</glyph>
<glyph name="paragraph" format="1">
  <advance width="1346"/>
  <unicode hex="00B6"/>
  <outline>
    <contour>
      <point x="343" y="0" type="line"/>
      <point x="343" y="85" type="line"/>
      <point x="542" y="115" type="line"/>
      <point x="542" y="676" type="line"/>
      <point x="258" y="676"/>
      <point x="118" y="815"/>
      <point x="118" y="1127" type="curve" smooth="yes"/>
      <point x="118" y="1388"/>
      <point x="279" y="1573"/>
      <point x="634" y="1573" type="curve" smooth="yes"/>
      <point x="725" y="1573"/>
      <point x="964" y="1556"/>
      <point x="1076" y="1553" type="curve"/>
      <point x="1247" y="1553" type="line"/>
      <point x="1247" y="1452" type="line"/>
      <point x="1075" y="1419" type="line"/>
      <point x="1075" y="115" type="line"/>
      <point x="1223" y="85" type="line"/>
      <point x="1223" y="0" type="line"/>
      <point x="906" y="0" type="line"/>
      <point x="904" y="1419" type="line"/>
      <point x="708" y="1419" type="line"/>
      <point x="708" y="0" type="line"/>
    </contour>
  </outline>
</glyph>
<glyph name="periodcentered" format="1">
  <advance width="706"/>
  <unicode hex="00B7"/>
  <outline>
    <contour>
      <point x="341" y="712" type="curve" smooth="yes"/>
      <point x="276" y="712"/>
      <point x="215" y="758"/>
      <point x="215" y="835" type="curve" smooth="yes"/>
      <point x="215" y="918"/>
      <point x="293" y="981"/>
      <point x="364" y="981" type="curve" smooth="yes"/>
      <point x="452" y="981"/>
      <point x="491" y="925"/>
      <point x="491" y="857" type="curve" smooth="yes"/>
      <point x="491" y="769"/>
      <point x="416" y="712"/>
    </contour>
  </outline>
</glyph>
<glyph name="onesuperior" format="1">
  <advance width="1085"/>
  <unicode hex="00B9"/>
  <outline>
    <contour>
      <point x="215" y="719" type="line"/>
      <point x="215" y="804" type="line"/>
      <point x="487" y="831" type="line"/>
      <point x="487" y="1484" type="line"/>
      <point x="215" y="1431" type="line"/>
      <point x="195" y="1530" type="line"/>
      <point x="316" y="1565"/>
      <point x="584" y="1685"/>
      <point x="631" y="1724" type="curve"/>
      <point x="683" y="1709" type="line"/>
      <point x="680" y="830" type="line"/>
      <point x="939" y="804" type="line"/>
      <point x="939" y="719" type="line"/>
    </contour>
  </outline>
</glyph>
<glyph name="ordmasculine" format="1">
  <advance width="998"/>
  <unicode hex="00BA"/>
  <outline>
    <contour>
      <point x="489" y="736" type="curve" smooth="yes"/>
      <point x="265" y="735"/>
      <point x="87" y="889"/>
      <point x="91" y="1166" type="curve" smooth="yes"/>
      <point x="96" y="1470"/>
      <point x="323" y="1593"/>
      <point x="510" y="1593" type="curve" smooth="yes"/>
      <point x="757" y="1593"/>
      <point x="910" y="1423"/>
      <point x="907" y="1156" type="curve" smooth="yes"/>
      <point x="904" y="854"/>
      <point x="667" y="737"/>
    </contour>
    <contour>
      <point x="486" y="838" type="curve" smooth="yes"/>
      <point x="629" y="839"/>
      <point x="711" y="893"/>
      <point x="711" y="1144" type="curve" smooth="yes"/>
      <point x="711" y="1350"/>
      <point x="631" y="1492"/>
      <point x="499" y="1490" type="curve" smooth="yes"/>
      <point x="367" y="1488"/>
      <point x="287" y="1398"/>
      <point x="287" y="1176" type="curve" smooth="yes"/>
      <point x="287" y="968"/>
      <point x="378" y="837"/>
    </contour>
  </outline>
</glyph>
<glyph name="onequarter" format="1">
  <advance width="2626"/>
  <unicode hex="00BC"/>
  <outline>
    <contour>
      <point x="796" y="-299" type="line"/>
      <point x="1571" y="1881" type="line"/>
      <point x="1701" y="1838" type="line"/>
      <point x="928" y="-343" type="line"/>
    </contour>
    <contour>
      <point x="245" y="719" type="line"/>
      <point x="245" y="804" type="line"/>
      <point x="517" y="831" type="line"/>
      <point x="517" y="1484" type="line"/>
      <point x="245" y="1431" type="line"/>
      <point x="225" y="1530" type="line"/>
      <point x="346" y="1565"/>
      <point x="614" y="1685"/>
      <point x="661" y="1724" type="curve"/>
      <point x="713" y="1709" type="line"/>
      <point x="710" y="830" type="line"/>
      <point x="969" y="804" type="line"/>
      <point x="969" y="719" type="line"/>
    </contour>
    <contour>
      <point x="1410" y="282" type="line"/>
      <point x="1984" y="1113" type="line"/>
      <point x="2052" y="1114" type="line"/>
      <point x="2162" y="1012" type="line"/>
      <point x="1651" y="387" type="line"/>
      <point x="1579" y="291" type="line"/>
      <point x="1987" y="323" type="line"/>
      <point x="1989" y="575" type="line"/>
      <point x="2165" y="595" type="line"/>
      <point x="2165" y="337" type="line"/>
      <point x="2438" y="358" type="line"/>
      <point x="2441" y="188" type="line"/>
      <point x="2165" y="188" type="line"/>
      <point x="2165" y="-177" type="line"/>
      <point x="1984" y="-177" type="line"/>
      <point x="1986" y="188" type="line"/>
      <point x="1462" y="188" type="line"/>
    </contour>
  </outline>
</glyph>
<glyph name="onehalf" format="1">
  <advance width="2626"/>
  <unicode hex="00BD"/>
  <outline>
    <contour>
      <point x="796" y="-312" type="line"/>
      <point x="1571" y="1881" type="line"/>
      <point x="1701" y="1844" type="line"/>
      <point x="928" y="-343" type="line"/>
    </contour>
    <contour>
      <point x="245" y="719" type="line"/>
      <point x="245" y="804" type="line"/>
      <point x="517" y="831" type="line"/>
      <point x="517" y="1484" type="line"/>
      <point x="245" y="1431" type="line"/>
      <point x="225" y="1530" type="line"/>
      <point x="346" y="1565"/>
      <point x="614" y="1685"/>
      <point x="661" y="1724" type="curve"/>
      <point x="713" y="1709" type="line"/>
      <point x="710" y="830" type="line"/>
      <point x="969" y="804" type="line"/>
      <point x="969" y="719" type="line"/>
    </contour>
    <contour>
      <point x="1464" y="114" type="line"/>
      <point x="1616" y="192"/>
      <point x="2094" y="464"/>
      <point x="2094" y="666" type="curve" smooth="yes"/>
      <point x="2094" y="810"/>
      <point x="1988" y="858"/>
      <point x="1874" y="858" type="curve" smooth="yes"/>
      <point x="1760" y="858"/>
      <point x="1617" y="796"/>
      <point x="1537" y="694" type="curve"/>
      <point x="1463" y="781" type="line"/>
      <point x="1526" y="881"/>
      <point x="1709" y="1007"/>
      <point x="1918" y="1007" type="curve" smooth="yes"/>
      <point x="2243" y="1007"/>
      <point x="2314" y="829"/>
      <point x="2314" y="731" type="curve" smooth="yes"/>
      <point x="2314" y="475"/>
      <point x="2045" y="306"/>
      <point x="1691" y="118" type="curve"/>
      <point x="2210" y="156" type="line"/>
      <point x="2329" y="296" type="line"/>
      <point x="2432" y="254" type="line"/>
      <point x="2376" y="-2" type="line"/>
      <point x="1507" y="-2" type="line"/>
    </contour>
  </outline>
</glyph>
<glyph name="questiondown" format="1">
  <advance width="1012"/>
  <unicode hex="00BF"/>
  <outline>
    <contour>
      <point x="439" y="1171" type="curve" smooth="yes"/>
      <point x="374" y="1171"/>
      <point x="313" y="1217"/>
      <point x="313" y="1294" type="curve" smooth="yes"/>
      <point x="313" y="1377"/>
      <point x="391" y="1440"/>
      <point x="462" y="1440" type="curve" smooth="yes"/>
      <point x="550" y="1440"/>
      <point x="589" y="1384"/>
      <point x="589" y="1316" type="curve" smooth="yes"/>
      <point x="589" y="1228"/>
      <point x="514" y="1171"/>
    </contour>
    <contour>
      <point x="88" y="235" type="curve"/>
      <point x="88" y="383"/>
      <point x="491" y="453"/>
      <point x="531" y="579" type="curve"/>
      <point x="533" y="591"/>
      <point x="534" y="603"/>
      <point x="534" y="615" type="curve" smooth="yes"/>
      <point x="534" y="713"/>
      <point x="476" y="818"/>
      <point x="435" y="928" type="curve"/>
      <point x="540" y="928" type="line"/>
      <point x="604" y="880"/>
      <point x="716" y="699"/>
      <point x="724" y="588" type="curve"/>
      <point x="731" y="421"/>
      <point x="265" y="346"/>
      <point x="235" y="249" type="curve"/>
      <point x="220" y="-13"/>
      <point x="457" y="-241"/>
      <point x="717" y="-241" type="curve" smooth="yes"/>
      <point x="768" y="-241"/>
      <point x="845" y="-236"/>
      <point x="882" y="-219" type="curve"/>
      <point x="882" y="-371" type="line"/>
      <point x="861" y="-397"/>
      <point x="772" y="-417"/>
      <point x="692" y="-417" type="curve" smooth="yes"/>
      <point x="241" y="-417"/>
      <point x="83" y="-97"/>
      <point x="83" y="156" type="curve" smooth="yes"/>
      <point x="83" y="183"/>
      <point x="84" y="210"/>
    </contour>
  </outline>
</glyph>
<glyph name="Acircumflex" format="1">
  <advance width="1493"/>
  <unicode hex="00C2"/>
  <outline>
    <contour>
      <point x="479" y="1616" type="line"/>
      <point x="401" y="1662" type="line"/>
      <point x="654" y="1920" type="line"/>
      <point x="843" y="1920" type="line"/>
      <point x="1100" y="1665" type="line"/>
      <point x="1013" y="1616" type="line"/>
      <point x="749" y="1784" type="line"/>
    </contour>
    <contour>
      <point x="2" y="0" type="line"/>
      <point x="2" y="85" type="line"/>
      <point x="145" y="114" type="line"/>
      <point x="666" y="1553" type="line"/>
      <point x="834" y="1553" type="line"/>
      <point x="1332" y="115" type="line"/>
      <point x="1491" y="85" type="line"/>
      <point x="1491" y="0" type="line"/>
      <point x="963" y="0" type="line"/>
      <point x="963" y="85" type="line"/>
      <point x="1129" y="115" type="line"/>
      <point x="1021" y="437" type="line"/>
      <point x="421" y="437" type="line"/>
      <point x="313" y="115" type="line"/>
      <point x="480" y="85" type="line"/>
      <point x="480" y="0" type="line"/>
    </contour>
    <contour>
      <point x="460" y="554" type="line"/>
      <point x="982" y="554" type="line"/>
      <point x="819" y="1042" type="line"/>
      <point x="724" y="1343" type="line"/>
    </contour>
  </outline>
</glyph>
<glyph name="Atilde" format="1">
  <advance width="1493"/>
  <unicode hex="00C3"/>
  <outline>
    <contour>
      <point x="403" y="1677" type="curve"/>
      <point x="351" y="1750" type="line"/>
      <point x="401" y="1843"/>
      <point x="523" y="1920"/>
      <point x="628" y="1920" type="curve" smooth="yes"/>
      <point x="759" y="1920"/>
      <point x="791" y="1794"/>
      <point x="888" y="1794" type="curve" smooth="yes"/>
      <point x="965" y="1794"/>
      <point x="1031" y="1833"/>
      <point x="1073" y="1875" type="curve"/>
      <point x="1125" y="1802" type="line"/>
      <point x="1075" y="1709"/>
      <point x="953" y="1631"/>
      <point x="848" y="1631" type="curve" smooth="yes"/>
      <point x="717" y="1631"/>
      <point x="686" y="1761"/>
      <point x="588" y="1761" type="curve" smooth="yes"/>
      <point x="518" y="1761"/>
      <point x="444" y="1718"/>
    </contour>
    <contour>
      <point x="2" y="0" type="line"/>
      <point x="2" y="85" type="line"/>
      <point x="145" y="114" type="line"/>
      <point x="666" y="1553" type="line"/>
      <point x="834" y="1553" type="line"/>
      <point x="1332" y="115" type="line"/>
      <point x="1491" y="85" type="line"/>
      <point x="1491" y="0" type="line"/>
      <point x="963" y="0" type="line"/>
      <point x="963" y="85" type="line"/>
      <point x="1129" y="115" type="line"/>
      <point x="1021" y="437" type="line"/>
      <point x="421" y="437" type="line"/>
      <point x="313" y="115" type="line"/>
      <point x="480" y="85" type="line"/>
      <point x="480" y="0" type="line"/>
    </contour>
    <contour>
      <point x="460" y="554" type="line"/>
      <point x="982" y="554" type="line"/>
      <point x="819" y="1042" type="line"/>
      <point x="724" y="1343" type="line"/>
    </contour>
  </outline>
</glyph>
<glyph name="Adieresis" format="1">
  <advance width="1493"/>
  <unicode hex="00C4"/>
  <outline>
    <contour>
      <point x="968" y="1651" type="curve" smooth="yes"/>
      <point x="903" y="1651"/>
      <point x="842" y="1697"/>
      <point x="842" y="1774" type="curve" smooth="yes"/>
      <point x="842" y="1857"/>
      <point x="920" y="1920"/>
      <point x="991" y="1920" type="curve" smooth="yes"/>
      <point x="1079" y="1920"/>
      <point x="1118" y="1864"/>
      <point x="1118" y="1796" type="curve" smooth="yes"/>
      <point x="1118" y="1708"/>
      <point x="1043" y="1651"/>
    </contour>
    <contour>
      <point x="502" y="1651" type="curve" smooth="yes"/>
      <point x="437" y="1651"/>
      <point x="376" y="1697"/>
      <point x="376" y="1774" type="curve" smooth="yes"/>
      <point x="376" y="1857"/>
      <point x="454" y="1920"/>
      <point x="525" y="1920" type="curve" smooth="yes"/>
      <point x="613" y="1920"/>
      <point x="652" y="1864"/>
      <point x="652" y="1796" type="curve" smooth="yes"/>
      <point x="652" y="1708"/>
      <point x="577" y="1651"/>
    </contour>
    <contour>
      <point x="2" y="0" type="line"/>
      <point x="2" y="85" type="line"/>
      <point x="145" y="114" type="line"/>
      <point x="666" y="1553" type="line"/>
      <point x="834" y="1553" type="line"/>
      <point x="1332" y="115" type="line"/>
      <point x="1491" y="85" type="line"/>
      <point x="1491" y="0" type="line"/>
      <point x="963" y="0" type="line"/>
      <point x="963" y="85" type="line"/>
      <point x="1129" y="115" type="line"/>
      <point x="1021" y="437" type="line"/>
      <point x="421" y="437" type="line"/>
      <point x="313" y="115" type="line"/>
      <point x="480" y="85" type="line"/>
      <point x="480" y="0" type="line"/>
    </contour>
    <contour>
      <point x="460" y="554" type="line"/>
      <point x="982" y="554" type="line"/>
      <point x="819" y="1042" type="line"/>
      <point x="724" y="1343" type="line"/>
    </contour>
  </outline>
</glyph>
<glyph name="Aring" format="1">
  <advance width="1493"/>
  <unicode hex="00C5"/>
  <outline>
    <contour>
      <point x="2" y="0" type="line"/>
      <point x="2" y="85" type="line"/>
      <point x="145" y="114" type="line"/>
      <point x="636" y="1471" type="line"/>
      <point x="553" y="1509"/>
      <point x="495" y="1589"/>
      <point x="495" y="1684" type="curve" smooth="yes"/>
      <point x="495" y="1817"/>
      <point x="609" y="1920"/>
      <point x="747" y="1920" type="curve" smooth="yes"/>
      <point x="885" y="1920"/>
      <point x="999" y="1817"/>
      <point x="999" y="1684" type="curve" smooth="yes"/>
      <point x="999" y="1590"/>
      <point x="943" y="1512"/>
      <point x="861" y="1473" type="curve"/>
      <point x="1332" y="115" type="line"/>
      <point x="1491" y="85" type="line"/>
      <point x="1491" y="0" type="line"/>
      <point x="963" y="0" type="line"/>
      <point x="963" y="85" type="line"/>
      <point x="1129" y="115" type="line"/>
      <point x="1021" y="437" type="line"/>
      <point x="421" y="437" type="line"/>
      <point x="313" y="115" type="line"/>
      <point x="480" y="85" type="line"/>
      <point x="480" y="0" type="line"/>
    </contour>
    <contour>
      <point x="747" y="1554" type="curve" smooth="yes"/>
      <point x="820" y="1554"/>
      <point x="880" y="1608"/>
      <point x="880" y="1682" type="curve" smooth="yes"/>
      <point x="880" y="1754"/>
      <point x="820" y="1809"/>
      <point x="747" y="1809" type="curve" smooth="yes"/>
      <point x="674" y="1809"/>
      <point x="614" y="1754"/>
      <point x="614" y="1682" type="curve" smooth="yes"/>
      <point x="614" y="1608"/>
      <point x="674" y="1554"/>
    </contour>
    <contour>
      <point x="460" y="554" type="line"/>
      <point x="982" y="554" type="line"/>
      <point x="819" y="1042" type="line"/>
      <point x="724" y="1343" type="line"/>
    </contour>
  </outline>
</glyph>
<glyph name="Ccedilla" format="1">
  <advance width="1410"/>
  <unicode hex="00C7"/>
  <outline>
    <contour>
      <point x="86" y="724" type="curve" smooth="yes"/>
      <point x="86" y="1240"/>
      <point x="465" y="1567"/>
      <point x="892" y="1567" type="curve" smooth="yes"/>
      <point x="1085" y="1567"/>
      <point x="1222" y="1515"/>
      <point x="1309" y="1496" type="curve"/>
      <point x="1293" y="1206" type="line"/>
      <point x="1187" y="1206" type="line"/>
      <point x="1135" y="1373" type="line"/>
      <point x="1051" y="1430"/>
      <point x="968" y="1451"/>
      <point x="829" y="1451" type="curve" smooth="yes"/>
      <point x="544" y="1451"/>
      <point x="290" y="1211"/>
      <point x="290" y="786" type="curve" smooth="yes"/>
      <point x="290" y="408"/>
      <point x="482" y="77"/>
      <point x="847" y="77" type="curve" smooth="yes"/>
      <point x="1008" y="77"/>
      <point x="1107" y="121"/>
      <point x="1167" y="197" type="curve"/>
      <point x="1225" y="351" type="line"/>
      <point x="1255" y="351"/>
      <point x="1280" y="350"/>
      <point x="1310" y="350" type="curve"/>
      <point x="1310" y="63" type="line"/>
      <point x="1220" y="59"/>
      <point x="1101" y="-18"/>
      <point x="848" y="-27" type="curve"/>
      <point x="846" y="-42"/>
      <point x="846" y="-59"/>
      <point x="846" y="-76" type="curve" smooth="yes"/>
      <point x="846" y="-93"/>
      <point x="846" y="-110"/>
      <point x="848" y="-125" type="curve"/>
      <point x="1033" y="-125"/>
      <point x="1103" y="-227"/>
      <point x="1103" y="-314" type="curve" smooth="yes"/>
      <point x="1103" y="-446"/>
      <point x="996" y="-520"/>
      <point x="850" y="-527" type="curve" smooth="yes"/>
      <point x="832" y="-528"/>
      <point x="816" y="-528"/>
      <point x="802" y="-528" type="curve" smooth="yes"/>
      <point x="721" y="-528"/>
      <point x="688" y="-515"/>
      <point x="653" y="-506" type="curve"/>
      <point x="653" y="-472"/>
      <point x="654" y="-439"/>
      <point x="654" y="-405" type="curve"/>
      <point x="685" y="-413"/>
      <point x="743" y="-420"/>
      <point x="767" y="-420" type="curve" smooth="yes"/>
      <point x="841" y="-420"/>
      <point x="907" y="-410"/>
      <point x="907" y="-309" type="curve" smooth="yes"/>
      <point x="907" y="-251"/>
      <point x="858" y="-209"/>
      <point x="750" y="-209" type="curve" smooth="yes"/>
      <point x="735" y="-209"/>
      <point x="705" y="-212"/>
      <point x="701" y="-213" type="curve"/>
      <point x="702" y="-154"/>
      <point x="712" y="-94"/>
      <point x="730" y="-24" type="curve"/>
      <point x="354" y="8"/>
      <point x="86" y="305"/>
    </contour>
  </outline>
</glyph>
<glyph name="Ecircumflex" format="1">
  <advance width="1319"/>
  <unicode hex="00CA"/>
  <outline>
    <contour>
      <point x="457" y="1616" type="line"/>
      <point x="379" y="1662" type="line"/>
      <point x="632" y="1920" type="line"/>
      <point x="821" y="1920" type="line"/>
      <point x="1078" y="1665" type="line"/>
      <point x="991" y="1616" type="line"/>
      <point x="727" y="1784" type="line"/>
    </contour>
    <contour>
      <point x="102" y="0" type="line"/>
      <point x="102" y="85" type="line"/>
      <point x="271" y="115" type="line"/>
      <point x="271" y="1437" type="line"/>
      <point x="106" y="1455" type="line"/>
      <point x="106" y="1553" type="line"/>
      <point x="1144" y="1553" type="line"/>
      <point x="1173" y="1267" type="line"/>
      <point x="1063" y="1267" type="line"/>
      <point x="1017" y="1435" type="line"/>
      <point x="465" y="1448" type="line"/>
      <point x="465" y="865" type="line"/>
      <point x="837" y="872" type="line"/>
      <point x="867" y="1029" type="line"/>
      <point x="969" y="1029" type="line"/>
      <point x="969" y="599" type="line"/>
      <point x="867" y="599" type="line"/>
      <point x="837" y="752" type="line"/>
      <point x="465" y="758" type="line"/>
      <point x="465" y="108" type="line"/>
      <point x="1059" y="127" type="line"/>
      <point x="1159" y="334" type="line"/>
      <point x="1256" y="310" type="line"/>
      <point x="1211" y="0" type="line"/>
    </contour>
  </outline>
</glyph>
<glyph name="Icircumflex" format="1">
  <advance width="763"/>
  <unicode hex="00CE"/>
  <outline>
    <contour>
      <point x="115" y="1616" type="line"/>
      <point x="37" y="1662" type="line"/>
      <point x="290" y="1920" type="line"/>
      <point x="479" y="1920" type="line"/>
      <point x="736" y="1665" type="line"/>
      <point x="649" y="1616" type="line"/>
      <point x="385" y="1784" type="line"/>
    </contour>
    <contour>
      <point x="105" y="0" type="line"/>
      <point x="105" y="85" type="line"/>
      <point x="284" y="114" type="line"/>
      <point x="284" y="1438" type="line"/>
      <point x="109" y="1455" type="line"/>
      <point x="109" y="1553" type="line"/>
      <point x="652" y="1553" type="line"/>
      <point x="652" y="1455" type="line"/>
      <point x="479" y="1437" type="line"/>
      <point x="479" y="115" type="line"/>
      <point x="661" y="85" type="line"/>
      <point x="661" y="0" type="line"/>
    </contour>
  </outline>
</glyph>
<glyph name="Idieresis" format="1">
  <advance width="763"/>
  <unicode hex="00CF"/>
  <outline>
    <contour>
      <point x="604" y="1651" type="curve" smooth="yes"/>
      <point x="539" y="1651"/>
      <point x="478" y="1697"/>
      <point x="478" y="1774" type="curve" smooth="yes"/>
      <point x="478" y="1857"/>
      <point x="556" y="1920"/>
      <point x="627" y="1920" type="curve" smooth="yes"/>
      <point x="715" y="1920"/>
      <point x="754" y="1864"/>
      <point x="754" y="1796" type="curve" smooth="yes"/>
      <point x="754" y="1708"/>
      <point x="679" y="1651"/>
    </contour>
    <contour>
      <point x="138" y="1651" type="curve" smooth="yes"/>
      <point x="73" y="1651"/>
      <point x="12" y="1697"/>
      <point x="12" y="1774" type="curve" smooth="yes"/>
      <point x="12" y="1857"/>
      <point x="90" y="1920"/>
      <point x="161" y="1920" type="curve" smooth="yes"/>
      <point x="249" y="1920"/>
      <point x="288" y="1864"/>
      <point x="288" y="1796" type="curve" smooth="yes"/>
      <point x="288" y="1708"/>
      <point x="213" y="1651"/>
    </contour>
    <contour>
      <point x="105" y="0" type="line"/>
      <point x="105" y="85" type="line"/>
      <point x="284" y="114" type="line"/>
      <point x="284" y="1438" type="line"/>
      <point x="109" y="1455" type="line"/>
      <point x="109" y="1553" type="line"/>
      <point x="652" y="1553" type="line"/>
      <point x="652" y="1455" type="line"/>
      <point x="479" y="1437" type="line"/>
      <point x="479" y="115" type="line"/>
      <point x="661" y="85" type="line"/>
      <point x="661" y="0" type="line"/>
    </contour>
  </outline>
</glyph>
<glyph name="Otilde" format="1">
  <advance width="1554"/>
  <unicode hex="00D5"/>
  <outline>
    <contour>
      <point x="441" y="1677" type="curve"/>
      <point x="389" y="1750" type="line"/>
      <point x="439" y="1843"/>
      <point x="561" y="1920"/>
      <point x="666" y="1920" type="curve" smooth="yes"/>
      <point x="797" y="1920"/>
      <point x="829" y="1794"/>
      <point x="926" y="1794" type="curve" smooth="yes"/>
      <point x="1003" y="1794"/>
      <point x="1069" y="1833"/>
      <point x="1111" y="1875" type="curve"/>
      <point x="1163" y="1802" type="line"/>
      <point x="1113" y="1709"/>
      <point x="991" y="1631"/>
      <point x="886" y="1631" type="curve" smooth="yes"/>
      <point x="755" y="1631"/>
      <point x="724" y="1761"/>
      <point x="626" y="1761" type="curve" smooth="yes"/>
      <point x="556" y="1761"/>
      <point x="482" y="1718"/>
    </contour>
    <contour>
      <point x="87" y="752" type="curve" smooth="yes"/>
      <point x="97" y="1262"/>
      <point x="415" y="1556"/>
      <point x="801" y="1567" type="curve" smooth="yes"/>
      <point x="1217" y="1578"/>
      <point x="1476" y="1241"/>
      <point x="1467" y="788" type="curve" smooth="yes"/>
      <point x="1457" y="278"/>
      <point x="1151" y="-20"/>
      <point x="771" y="-28" type="curve" smooth="yes"/>
      <point x="349" y="-37"/>
      <point x="78" y="300"/>
    </contour>
    <contour>
      <point x="788" y="77" type="curve" smooth="yes"/>
      <point x="1081" y="77"/>
      <point x="1251" y="342"/>
      <point x="1251" y="787" type="curve" smooth="yes"/>
      <point x="1251" y="1135"/>
      <point x="1089" y="1461"/>
      <point x="784" y="1461" type="curve" smooth="yes"/>
      <point x="490" y="1461"/>
      <point x="303" y="1198"/>
      <point x="303" y="753" type="curve" smooth="yes"/>
      <point x="303" y="405"/>
      <point x="479" y="77"/>
    </contour>
  </outline>
</glyph>
<glyph name="Odieresis" format="1">
  <advance width="1554"/>
  <unicode hex="00D6"/>
  <outline>
    <contour>
      <point x="1006" y="1651" type="curve" smooth="yes"/>
      <point x="941" y="1651"/>
      <point x="880" y="1697"/>
      <point x="880" y="1774" type="curve" smooth="yes"/>
      <point x="880" y="1857"/>
      <point x="958" y="1920"/>
      <point x="1029" y="1920" type="curve" smooth="yes"/>
      <point x="1117" y="1920"/>
      <point x="1156" y="1864"/>
      <point x="1156" y="1796" type="curve" smooth="yes"/>
      <point x="1156" y="1708"/>
      <point x="1081" y="1651"/>
    </contour>
    <contour>
      <point x="540" y="1651" type="curve" smooth="yes"/>
      <point x="475" y="1651"/>
      <point x="414" y="1697"/>
      <point x="414" y="1774" type="curve" smooth="yes"/>
      <point x="414" y="1857"/>
      <point x="492" y="1920"/>
      <point x="563" y="1920" type="curve" smooth="yes"/>
      <point x="651" y="1920"/>
      <point x="690" y="1864"/>
      <point x="690" y="1796" type="curve" smooth="yes"/>
      <point x="690" y="1708"/>
      <point x="615" y="1651"/>
    </contour>
    <contour>
      <point x="87" y="752" type="curve" smooth="yes"/>
      <point x="97" y="1262"/>
      <point x="415" y="1556"/>
      <point x="801" y="1567" type="curve" smooth="yes"/>
      <point x="1217" y="1578"/>
      <point x="1476" y="1241"/>
      <point x="1467" y="788" type="curve" smooth="yes"/>
      <point x="1457" y="278"/>
      <point x="1151" y="-20"/>
      <point x="771" y="-28" type="curve" smooth="yes"/>
      <point x="349" y="-37"/>
      <point x="78" y="300"/>
    </contour>
    <contour>
      <point x="788" y="77" type="curve" smooth="yes"/>
      <point x="1081" y="77"/>
      <point x="1251" y="342"/>
      <point x="1251" y="787" type="curve" smooth="yes"/>
      <point x="1251" y="1135"/>
      <point x="1089" y="1461"/>
      <point x="784" y="1461" type="curve" smooth="yes"/>
      <point x="490" y="1461"/>
      <point x="303" y="1198"/>
      <point x="303" y="753" type="curve" smooth="yes"/>
      <point x="303" y="405"/>
      <point x="479" y="77"/>
    </contour>
  </outline>
</glyph>
<glyph name="multiply" format="1">
  <advance width="1241"/>
  <unicode hex="00D7"/>
  <outline>
    <contour>
      <point x="295" y="345" type="line"/>
      <point x="178" y="468" type="line"/>
      <point x="520" y="795" type="line"/>
      <point x="178" y="1122" type="line"/>
      <point x="295" y="1245" type="line"/>
      <point x="620" y="895" type="line"/>
      <point x="945" y="1245" type="line"/>
      <point x="1062" y="1122" type="line"/>
      <point x="720" y="795" type="line"/>
      <point x="1062" y="468" type="line"/>
      <point x="945" y="345" type="line"/>
      <point x="620" y="695" type="line"/>
    </contour>
  </outline>
</glyph>
<glyph name="Oslash" format="1">
  <advance width="1554"/>
  <unicode hex="00D8"/>
  <outline>
    <contour>
      <point x="440" y="-166" type="line"/>
      <point x="503" y="19" type="line"/>
      <point x="238" y="126"/>
      <point x="80" y="405"/>
      <point x="87" y="752" type="curve" smooth="yes"/>
      <point x="97" y="1262"/>
      <point x="415" y="1556"/>
      <point x="801" y="1567" type="curve" smooth="yes"/>
      <point x="885" y="1569"/>
      <point x="962" y="1557"/>
      <point x="1032" y="1533" type="curve"/>
      <point x="1088" y="1693" type="line"/>
      <point x="1171" y="1659" type="line"/>
      <point x="1115" y="1497" type="line"/>
      <point x="1342" y="1376"/>
      <point x="1473" y="1112"/>
      <point x="1467" y="788" type="curve" smooth="yes"/>
      <point x="1457" y="278"/>
      <point x="1151" y="-20"/>
      <point x="771" y="-28" type="curve" smooth="yes"/>
      <point x="708" y="-29"/>
      <point x="648" y="-23"/>
      <point x="593" y="-10" type="curve"/>
      <point x="528" y="-199" type="line"/>
    </contour>
    <contour>
      <point x="553" y="152" type="curve"/>
      <point x="984" y="1405" type="line"/>
      <point x="926" y="1440"/>
      <point x="860" y="1461"/>
      <point x="784" y="1461" type="curve" smooth="yes"/>
      <point x="490" y="1461"/>
      <point x="303" y="1198"/>
      <point x="303" y="753" type="curve" smooth="yes"/>
      <point x="303" y="506"/>
      <point x="391" y="269"/>
    </contour>
    <contour>
      <point x="636" y="106" type="line"/>
      <point x="682" y="87"/>
      <point x="733" y="77"/>
      <point x="788" y="77" type="curve" smooth="yes"/>
      <point x="1081" y="77"/>
      <point x="1251" y="342"/>
      <point x="1251" y="787" type="curve" smooth="yes"/>
      <point x="1251" y="1008"/>
      <point x="1185" y="1220"/>
      <point x="1059" y="1345" type="curve"/>
    </contour>
  </outline>
</glyph>
<glyph name="Uacute" format="1">
  <advance width="1576"/>
  <unicode hex="00DA"/>
  <outline>
    <contour>
      <point x="813" y="1607" type="curve"/>
      <point x="760" y="1661" type="line"/>
      <point x="1066" y="1920" type="line"/>
      <point x="1212" y="1771" type="line"/>
      <point x="1087" y="1691"/>
      <point x="937" y="1629"/>
    </contour>
    <contour>
      <point x="191" y="661" type="curve" smooth="yes"/>
      <point x="191" y="919"/>
      <point x="192" y="1179"/>
      <point x="192" y="1437" type="curve"/>
      <point x="33" y="1455" type="line"/>
      <point x="33" y="1553" type="line"/>
      <point x="566" y="1553" type="line"/>
      <point x="566" y="1455" type="line"/>
      <point x="387" y="1436" type="line"/>
      <point x="387" y="656" type="line" smooth="yes"/>
      <point x="387" y="206"/>
      <point x="579" y="75"/>
      <point x="839" y="75" type="curve" smooth="yes"/>
      <point x="1119" y="75"/>
      <point x="1237" y="308"/>
      <point x="1237" y="686" type="curve" smooth="yes"/>
      <point x="1237" y="1436" type="line"/>
      <point x="1055" y="1455" type="line"/>
      <point x="1055" y="1553" type="line"/>
      <point x="1545" y="1553" type="line"/>
      <point x="1545" y="1455" type="line"/>
      <point x="1387" y="1436" type="line"/>
      <point x="1387" y="687" type="line" smooth="yes"/>
      <point x="1387" y="186"/>
      <point x="1148" y="-28"/>
      <point x="806" y="-28" type="curve" smooth="yes"/>
      <point x="353" y="-28"/>
      <point x="190" y="211"/>
    </contour>
  </outline>
</glyph>
<glyph name="Thorn" format="1">
  <advance width="1296"/>
  <unicode hex="00DE"/>
  <outline>
    <contour>
      <point x="86" y="0" type="line"/>
      <point x="86" y="85" type="line"/>
      <point x="275" y="115" type="line"/>
      <point x="275" y="1438" type="line"/>
      <point x="101" y="1455" type="line"/>
      <point x="101" y="1553" type="line"/>
      <point x="644" y="1553" type="line"/>
      <point x="644" y="1455" type="line"/>
      <point x="470" y="1437" type="line"/>
      <point x="470" y="1230" type="line"/>
      <point x="545" y="1239"/>
      <point x="642" y="1254"/>
      <point x="729" y="1254" type="curve" smooth="yes"/>
      <point x="1036" y="1254"/>
      <point x="1251" y="1112"/>
      <point x="1251" y="823" type="curve" smooth="yes"/>
      <point x="1251" y="497"/>
      <point x="964" y="318"/>
      <point x="672" y="325" type="curve" smooth="yes"/>
      <point x="571" y="327"/>
      <point x="512" y="328"/>
      <point x="470" y="330" type="curve"/>
      <point x="470" y="115" type="line"/>
      <point x="737" y="85" type="line"/>
      <point x="737" y="0" type="line"/>
    </contour>
    <contour>
      <point x="470" y="438" type="line"/>
      <point x="545" y="427"/>
      <point x="609" y="427"/>
      <point x="669" y="427" type="curve" smooth="yes"/>
      <point x="862" y="427"/>
      <point x="1053" y="501"/>
      <point x="1053" y="820" type="curve" smooth="yes"/>
      <point x="1053" y="1026"/>
      <point x="910" y="1153"/>
      <point x="653" y="1143" type="curve" smooth="yes"/>
      <point x="588" y="1140"/>
      <point x="530" y="1129"/>
      <point x="470" y="1114" type="curve"/>
    </contour>
  </outline>
</glyph>
<glyph name="germandbls" format="1">
  <advance width="1334"/>
  <unicode hex="00DF"/>
  <outline>
    <contour>
      <point x="67" y="0" type="line"/>
      <point x="67" y="86" type="line"/>
      <point x="227" y="117" type="line"/>
      <point x="227" y="878" type="line" smooth="yes"/>
      <point x="227" y="1367"/>
      <point x="486" y="1587"/>
      <point x="766" y="1587" type="curve" smooth="yes"/>
      <point x="919" y="1587"/>
      <point x="1078" y="1522"/>
      <point x="1078" y="1293" type="curve" smooth="yes"/>
      <point x="1078" y="1048"/>
      <point x="878" y="988"/>
      <point x="878" y="804" type="curve" smooth="yes"/>
      <point x="878" y="597"/>
      <point x="1308" y="629"/>
      <point x="1308" y="310" type="curve" smooth="yes"/>
      <point x="1308" y="76"/>
      <point x="1113" y="-21"/>
      <point x="894" y="-21" type="curve" smooth="yes"/>
      <point x="836" y="-21"/>
      <point x="752" y="-21"/>
      <point x="673" y="-2" type="curve"/>
      <point x="673" y="171" type="line"/>
      <point x="724" y="144"/>
      <point x="832" y="90"/>
      <point x="910" y="90" type="curve" smooth="yes"/>
      <point x="1018" y="90"/>
      <point x="1124" y="129"/>
      <point x="1124" y="276" type="curve" smooth="yes"/>
      <point x="1124" y="484"/>
      <point x="695" y="480"/>
      <point x="695" y="729" type="curve" smooth="yes"/>
      <point x="695" y="866"/>
      <point x="905" y="1029"/>
      <point x="905" y="1225" type="curve" smooth="yes"/>
      <point x="905" y="1358"/>
      <point x="847" y="1469"/>
      <point x="713" y="1469" type="curve" smooth="yes"/>
      <point x="494" y="1469"/>
      <point x="418" y="1324"/>
      <point x="418" y="878" type="curve" smooth="yes"/>
      <point x="418" y="0" type="line"/>
    </contour>
  </outline>
</glyph>
<glyph name="aring" format="1">
  <advance width="1145"/>
  <unicode hex="00E5"/>
  <outline>
    <contour>
      <point x="548" y="1320" type="curve" smooth="yes"/>
      <point x="410" y="1320"/>
      <point x="296" y="1428"/>
      <point x="296" y="1561" type="curve" smooth="yes"/>
      <point x="296" y="1694"/>
      <point x="410" y="1802"/>
      <point x="548" y="1802" type="curve" smooth="yes"/>
      <point x="686" y="1802"/>
      <point x="800" y="1694"/>
      <point x="800" y="1561" type="curve" smooth="yes"/>
      <point x="800" y="1428"/>
      <point x="686" y="1320"/>
    </contour>
    <contour>
      <point x="548" y="1426" type="curve" smooth="yes"/>
      <point x="621" y="1426"/>
      <point x="681" y="1485"/>
      <point x="681" y="1559" type="curve" smooth="yes"/>
      <point x="681" y="1631"/>
      <point x="621" y="1691"/>
      <point x="548" y="1691" type="curve" smooth="yes"/>
      <point x="475" y="1691"/>
      <point x="415" y="1631"/>
      <point x="415" y="1559" type="curve" smooth="yes"/>
      <point x="415" y="1485"/>
      <point x="475" y="1426"/>
    </contour>
    <contour>
      <point x="110" y="322" type="curve" smooth="yes"/>
      <point x="140" y="601"/>
      <point x="567" y="665"/>
      <point x="755" y="665" type="curve"/>
      <point x="755" y="752" type="line" smooth="yes"/>
      <point x="755" y="963"/>
      <point x="635" y="1006"/>
      <point x="481" y="1006" type="curve" smooth="yes"/>
      <point x="403" y="1006"/>
      <point x="284" y="976"/>
      <point x="190" y="930" type="curve"/>
      <point x="153" y="1020" type="line"/>
      <point x="253" y="1101"/>
      <point x="453" y="1139"/>
      <point x="555" y="1139" type="curve" smooth="yes"/>
      <point x="767" y="1139"/>
      <point x="949" y="1063"/>
      <point x="948" y="773" type="curve" smooth="yes"/>
      <point x="946" y="85" type="line"/>
      <point x="1074" y="85" type="line"/>
      <point x="1074" y="19" type="line"/>
      <point x="1028" y="-6"/>
      <point x="953" y="-24"/>
      <point x="884" y="-24" type="curve" smooth="yes"/>
      <point x="835" y="-24"/>
      <point x="766" y="-19"/>
      <point x="766" y="80" type="curve" smooth="yes"/>
      <point x="766" y="108" type="line"/>
      <point x="704" y="34"/>
      <point x="602" y="-24"/>
      <point x="433" y="-24" type="curve" smooth="yes"/>
      <point x="238" y="-24"/>
      <point x="108" y="116"/>
      <point x="108" y="286" type="curve" smooth="yes"/>
      <point x="108" y="298"/>
      <point x="109" y="310"/>
    </contour>
    <contour>
      <point x="304" y="318" type="curve" smooth="yes"/>
      <point x="304" y="160"/>
      <point x="393" y="103"/>
      <point x="540" y="103" type="curve" smooth="yes"/>
      <point x="619" y="103"/>
      <point x="712" y="149"/>
      <point x="753" y="189" type="curve"/>
      <point x="753" y="313"/>
      <point x="754" y="437"/>
      <point x="755" y="562" type="curve"/>
      <point x="586" y="562"/>
      <point x="304" y="512"/>
    </contour>
  </outline>
</glyph>
<glyph name="ccedilla" format="1">
  <advance width="1045"/>
  <unicode hex="00E7"/>
  <outline>
    <contour>
      <point x="517" y="-17" type="curve"/>
      <point x="252" y="16"/>
      <point x="106" y="241"/>
      <point x="104" y="538" type="curve" smooth="yes"/>
      <point x="102" y="905"/>
      <point x="342" y="1137"/>
      <point x="648" y="1149" type="curve" smooth="yes"/>
      <point x="658" y="1149"/>
      <point x="668" y="1150"/>
      <point x="678" y="1150" type="curve" smooth="yes"/>
      <point x="782" y="1150"/>
      <point x="890" y="1131"/>
      <point x="938" y="1099" type="curve"/>
      <point x="938" y="859" type="line"/>
      <point x="843" y="859" type="line"/>
      <point x="792" y="985" type="line"/>
      <point x="749" y="1020"/>
      <point x="676" y="1033"/>
      <point x="628" y="1033" type="curve" smooth="yes"/>
      <point x="450" y="1033"/>
      <point x="290" y="901"/>
      <point x="288" y="626" type="curve" smooth="yes"/>
      <point x="285" y="263"/>
      <point x="484" y="116"/>
      <point x="652" y="116" type="curve" smooth="yes"/>
      <point x="755" y="116"/>
      <point x="884" y="144"/>
      <point x="940" y="177" type="curve"/>
      <point x="974" y="88" type="line"/>
      <point x="904" y="26"/>
      <point x="770" y="-12"/>
      <point x="634" y="-20" type="curve"/>
      <point x="632" y="-39"/>
      <point x="631" y="-60"/>
      <point x="631" y="-82" type="curve" smooth="yes"/>
      <point x="631" y="-97"/>
      <point x="631" y="-111"/>
      <point x="633" y="-125" type="curve"/>
      <point x="818" y="-125"/>
      <point x="888" y="-227"/>
      <point x="888" y="-314" type="curve" smooth="yes"/>
      <point x="888" y="-446"/>
      <point x="781" y="-520"/>
      <point x="635" y="-527" type="curve" smooth="yes"/>
      <point x="617" y="-528"/>
      <point x="601" y="-528"/>
      <point x="587" y="-528" type="curve" smooth="yes"/>
      <point x="506" y="-528"/>
      <point x="473" y="-515"/>
      <point x="438" y="-506" type="curve"/>
      <point x="438" y="-472"/>
      <point x="439" y="-439"/>
      <point x="439" y="-405" type="curve"/>
      <point x="470" y="-413"/>
      <point x="528" y="-420"/>
      <point x="552" y="-420" type="curve" smooth="yes"/>
      <point x="626" y="-420"/>
      <point x="692" y="-410"/>
      <point x="692" y="-309" type="curve" smooth="yes"/>
      <point x="692" y="-251"/>
      <point x="643" y="-209"/>
      <point x="535" y="-209" type="curve" smooth="yes"/>
      <point x="520" y="-209"/>
      <point x="490" y="-212"/>
      <point x="486" y="-213" type="curve"/>
      <point x="487" y="-152"/>
      <point x="498" y="-90"/>
    </contour>
  </outline>
</glyph>
<glyph name="icircumflex" format="1">
  <advance width="683"/>
  <unicode hex="00EE"/>
  <outline>
    <contour>
      <point x="63" y="1335" type="line"/>
      <point x="-12" y="1381" type="line"/>
      <point x="261" y="1775" type="line"/>
      <point x="450" y="1775" type="line"/>
      <point x="712" y="1382" type="line"/>
      <point x="627" y="1336" type="line"/>
      <point x="355" y="1603" type="line"/>
    </contour>
    <contour>
      <point x="112" y="0" type="line"/>
      <point x="112" y="85" type="line"/>
      <point x="282" y="106" type="line"/>
      <point x="282" y="925" type="line"/>
      <point x="144" y="998" type="line"/>
      <point x="144" y="1060" type="line"/>
      <point x="421" y="1139" type="line"/>
      <point x="466" y="1119" type="line"/>
      <point x="466" y="106" type="line"/>
      <point x="628" y="85" type="line"/>
      <point x="628" y="0" type="line"/>
    </contour>
  </outline>
</glyph>
<glyph name="idieresis" format="1">
  <advance width="683"/>
  <unicode hex="00EF"/>
  <outline>
    <contour>
      <point x="575" y="1382" type="curve" smooth="yes"/>
      <point x="510" y="1382"/>
      <point x="451" y="1425"/>
      <point x="451" y="1502" type="curve" smooth="yes"/>
      <point x="451" y="1585"/>
      <point x="527" y="1646"/>
      <point x="598" y="1646" type="curve" smooth="yes"/>
      <point x="686" y="1646"/>
      <point x="725" y="1592"/>
      <point x="725" y="1524" type="curve" smooth="yes"/>
      <point x="725" y="1436"/>
      <point x="650" y="1382"/>
    </contour>
    <contour>
      <point x="109" y="1382" type="curve" smooth="yes"/>
      <point x="44" y="1382"/>
      <point x="-15" y="1425"/>
      <point x="-15" y="1502" type="curve" smooth="yes"/>
      <point x="-15" y="1585"/>
      <point x="61" y="1646"/>
      <point x="132" y="1646" type="curve" smooth="yes"/>
      <point x="220" y="1646"/>
      <point x="259" y="1592"/>
      <point x="259" y="1524" type="curve" smooth="yes"/>
      <point x="259" y="1436"/>
      <point x="184" y="1382"/>
    </contour>
    <contour>
      <point x="112" y="0" type="line"/>
      <point x="112" y="85" type="line"/>
      <point x="282" y="106" type="line"/>
      <point x="282" y="925" type="line"/>
      <point x="144" y="998" type="line"/>
      <point x="144" y="1060" type="line"/>
      <point x="421" y="1139" type="line"/>
      <point x="466" y="1119" type="line"/>
      <point x="466" y="106" type="line"/>
      <point x="628" y="85" type="line"/>
      <point x="628" y="0" type="line"/>
    </contour>
  </outline>
</glyph>
<glyph name="divide" format="1">
  <advance width="1281"/>
  <unicode hex="00F7"/>
  <outline>
    <contour>
      <point x="631" y="1052" type="curve" smooth="yes"/>
      <point x="566" y="1052"/>
      <point x="505" y="1098"/>
      <point x="505" y="1175" type="curve" smooth="yes"/>
      <point x="505" y="1258"/>
      <point x="583" y="1321"/>
      <point x="654" y="1321" type="curve" smooth="yes"/>
      <point x="742" y="1321"/>
      <point x="781" y="1265"/>
      <point x="781" y="1197" type="curve" smooth="yes"/>
      <point x="781" y="1109"/>
      <point x="706" y="1052"/>
    </contour>
    <contour>
      <point x="178" y="727" type="line"/>
      <point x="178" y="874" type="line"/>
      <point x="1103" y="874" type="line"/>
      <point x="1103" y="727" type="line"/>
    </contour>
    <contour>
      <point x="505" y="398" type="curve" smooth="yes"/>
      <point x="505" y="481"/>
      <point x="583" y="544"/>
      <point x="654" y="544" type="curve" smooth="yes"/>
      <point x="742" y="544"/>
      <point x="781" y="488"/>
      <point x="781" y="420" type="curve" smooth="yes"/>
      <point x="781" y="332"/>
      <point x="706" y="275"/>
      <point x="631" y="275" type="curve" smooth="yes"/>
      <point x="566" y="275"/>
      <point x="505" y="321"/>
    </contour>
  </outline>
</glyph>
<glyph name="oslash" format="1">
  <advance width="1231"/>
  <unicode hex="00F8"/>
  <outline>
    <contour>
      <point x="327" y="-161" type="line"/>
      <point x="388" y="19" type="line"/>
      <point x="182" y="111"/>
      <point x="98" y="338"/>
      <point x="101" y="582" type="curve" smooth="yes"/>
      <point x="106" y="940"/>
      <point x="356" y="1149"/>
      <point x="633" y="1152" type="curve" smooth="yes"/>
      <point x="684" y="1152"/>
      <point x="731" y="1147"/>
      <point x="775" y="1136" type="curve"/>
      <point x="832" y="1303" type="line"/>
      <point x="913" y="1271" type="line"/>
      <point x="858" y="1106" type="line"/>
      <point x="1043" y="1018"/>
      <point x="1132" y="812"/>
      <point x="1130" y="573" type="curve" smooth="yes"/>
      <point x="1127" y="218"/>
      <point x="895" y="-23"/>
      <point x="608" y="-24" type="curve" smooth="yes"/>
      <point x="559" y="-24"/>
      <point x="515" y="-19"/>
      <point x="474" y="-9" type="curve"/>
      <point x="412" y="-194" type="line"/>
    </contour>
    <contour>
      <point x="441" y="164" type="curve"/>
      <point x="731" y="1022" type="line"/>
      <point x="699" y="1037"/>
      <point x="662" y="1046"/>
      <point x="621" y="1047" type="curve" smooth="yes"/>
      <point x="395" y="1051"/>
      <point x="306" y="878"/>
      <point x="306" y="591" type="curve" smooth="yes"/>
      <point x="306" y="419"/>
      <point x="350" y="255"/>
    </contour>
    <contour>
      <point x="518" y="110" type="line"/>
      <point x="548" y="96"/>
      <point x="581" y="89"/>
      <point x="617" y="88" type="curve" smooth="yes"/>
      <point x="843" y="83"/>
      <point x="925" y="256"/>
      <point x="925" y="564" type="curve" smooth="yes"/>
      <point x="925" y="735"/>
      <point x="888" y="882"/>
      <point x="806" y="967" type="curve"/>
    </contour>
  </outline>
</glyph>
<glyph name="udieresis" format="1">
  <advance width="1292"/>
  <unicode hex="00FC"/>
  <outline>
    <contour>
      <point x="841" y="1382" type="curve" smooth="yes"/>
      <point x="776" y="1382"/>
      <point x="717" y="1425"/>
      <point x="717" y="1502" type="curve" smooth="yes"/>
      <point x="717" y="1585"/>
      <point x="793" y="1646"/>
      <point x="864" y="1646" type="curve" smooth="yes"/>
      <point x="952" y="1646"/>
      <point x="991" y="1592"/>
      <point x="991" y="1524" type="curve" smooth="yes"/>
      <point x="991" y="1436"/>
      <point x="916" y="1382"/>
    </contour>
    <contour>
      <point x="375" y="1382" type="curve" smooth="yes"/>
      <point x="310" y="1382"/>
      <point x="251" y="1425"/>
      <point x="251" y="1502" type="curve" smooth="yes"/>
      <point x="251" y="1585"/>
      <point x="327" y="1646"/>
      <point x="398" y="1646" type="curve" smooth="yes"/>
      <point x="486" y="1646"/>
      <point x="525" y="1592"/>
      <point x="525" y="1524" type="curve" smooth="yes"/>
      <point x="525" y="1436"/>
      <point x="450" y="1382"/>
    </contour>
    <contour>
      <point x="214" y="461" type="curve"/>
      <point x="214" y="977" type="line"/>
      <point x="111" y="1007" type="line"/>
      <point x="111" y="1084" type="line"/>
      <point x="368" y="1139" type="line"/>
      <point x="403" y="1121" type="line"/>
      <point x="403" y="432" type="line" smooth="yes"/>
      <point x="403" y="211"/>
      <point x="444" y="116"/>
      <point x="619" y="116" type="curve" smooth="yes"/>
      <point x="738" y="116"/>
      <point x="860" y="192"/>
      <point x="895" y="229" type="curve"/>
      <point x="895" y="968" type="line"/>
      <point x="770" y="1000" type="line"/>
      <point x="770" y="1082" type="line"/>
      <point x="1056" y="1139" type="line"/>
      <point x="1084" y="1122" type="line"/>
      <point x="1084" y="85" type="line"/>
      <point x="1204" y="85" type="line"/>
      <point x="1204" y="9" type="line"/>
      <point x="1165" y="-12"/>
      <point x="1080" y="-34"/>
      <point x="1017" y="-34" type="curve" smooth="yes"/>
      <point x="953" y="-34"/>
      <point x="914" y="-7"/>
      <point x="914" y="52" type="curve" smooth="yes"/>
      <point x="914" y="134" type="line"/>
      <point x="799" y="33"/>
      <point x="665" y="-21"/>
      <point x="545" y="-21" type="curve" smooth="yes"/>
      <point x="231" y="-21"/>
      <point x="216" y="184"/>
    </contour>
  </outline>
</glyph>
<glyph name="ydieresis" format="1">
  <advance width="1150"/>
  <unicode hex="00FF"/>
  <outline>
    <contour>
      <point x="831" y="1382" type="curve" smooth="yes"/>
      <point x="766" y="1382"/>
      <point x="707" y="1425"/>
      <point x="707" y="1502" type="curve" smooth="yes"/>
      <point x="707" y="1585"/>
      <point x="783" y="1646"/>
      <point x="854" y="1646" type="curve" smooth="yes"/>
      <point x="942" y="1646"/>
      <point x="981" y="1592"/>
      <point x="981" y="1524" type="curve" smooth="yes"/>
      <point x="981" y="1436"/>
      <point x="906" y="1382"/>
    </contour>
    <contour>
      <point x="365" y="1382" type="curve" smooth="yes"/>
      <point x="300" y="1382"/>
      <point x="241" y="1425"/>
      <point x="241" y="1502" type="curve" smooth="yes"/>
      <point x="241" y="1585"/>
      <point x="317" y="1646"/>
      <point x="388" y="1646" type="curve" smooth="yes"/>
      <point x="476" y="1646"/>
      <point x="515" y="1592"/>
      <point x="515" y="1524" type="curve" smooth="yes"/>
      <point x="515" y="1436"/>
      <point x="440" y="1382"/>
    </contour>
    <contour>
      <point x="150" y="-339" type="line"/>
      <point x="172" y="-346"/>
      <point x="206" y="-350"/>
      <point x="230" y="-350" type="curve" smooth="yes"/>
      <point x="326" y="-350"/>
      <point x="462" y="-297"/>
      <point x="550" y="0" type="curve"/>
      <point x="507" y="0" type="line"/>
      <point x="106" y="995" type="line"/>
      <point x="2" y="1013" type="line"/>
      <point x="2" y="1119" type="line"/>
      <point x="465" y="1119" type="line"/>
      <point x="465" y="1013" type="line"/>
      <point x="321" y="993" type="line"/>
      <point x="556" y="322" type="line"/>
      <point x="623" y="118" type="line"/>
      <point x="681" y="322" type="line"/>
      <point x="884" y="996" type="line"/>
      <point x="728" y="1013" type="line"/>
      <point x="728" y="1119" type="line"/>
      <point x="1160" y="1119" type="line"/>
      <point x="1160" y="1013" type="line"/>
      <point x="1048" y="997" type="line"/>
      <point x="781" y="220"/>
      <point x="717" y="42"/>
      <point x="686" y="-38" type="curve" smooth="yes"/>
      <point x="581" y="-305"/>
      <point x="482" y="-465"/>
      <point x="317" y="-505" type="curve" smooth="yes"/>
      <point x="289" y="-512"/>
      <point x="261" y="-515"/>
      <point x="229" y="-515" type="curve" smooth="yes"/>
      <point x="202" y="-515"/>
      <point x="161" y="-509"/>
      <point x="150" y="-500" type="curve"/>
    </contour>
  </outline>
</glyph>
<glyph name="aogonek" format="1">
  <advance width="1145"/>
  <unicode hex="0105"/>
  <outline>
    <contour>
      <point x="110" y="322" type="curve" smooth="yes"/>
      <point x="140" y="601"/>
      <point x="567" y="665"/>
      <point x="755" y="665" type="curve"/>
      <point x="755" y="752" type="line" smooth="yes"/>
      <point x="755" y="963"/>
      <point x="635" y="1006"/>
      <point x="481" y="1006" type="curve" smooth="yes"/>
      <point x="403" y="1006"/>
      <point x="284" y="976"/>
      <point x="190" y="930" type="curve"/>
      <point x="153" y="1020" type="line"/>
      <point x="253" y="1101"/>
      <point x="453" y="1139"/>
      <point x="555" y="1139" type="curve" smooth="yes"/>
      <point x="767" y="1139"/>
      <point x="949" y="1063"/>
      <point x="948" y="773" type="curve" smooth="yes"/>
      <point x="946" y="85" type="line"/>
      <point x="1074" y="85" type="line"/>
      <point x="1074" y="19" type="line"/>
      <point x="1071" y="17"/>
      <point x="1069" y="15"/>
      <point x="1066" y="14" type="curve" smooth="yes"/>
      <point x="1090" y="19" type="line"/>
      <point x="941" y="-55"/>
      <point x="814" y="-176"/>
      <point x="814" y="-266" type="curve" smooth="yes"/>
      <point x="814" y="-359"/>
      <point x="873" y="-390"/>
      <point x="945" y="-390" type="curve" smooth="yes"/>
      <point x="992" y="-390"/>
      <point x="1044" y="-376"/>
      <point x="1089" y="-358" type="curve"/>
      <point x="1089" y="-446" type="line"/>
      <point x="1032" y="-489"/>
      <point x="943" y="-516"/>
      <point x="859" y="-516" type="curve" smooth="yes"/>
      <point x="741" y="-516"/>
      <point x="632" y="-463"/>
      <point x="632" y="-323" type="curve" smooth="yes"/>
      <point x="632" y="-211"/>
      <point x="755" y="-76"/>
      <point x="873" y="-24" type="curve"/>
      <point x="825" y="-23"/>
      <point x="766" y="-12"/>
      <point x="766" y="80" type="curve" smooth="yes"/>
      <point x="766" y="108" type="line"/>
      <point x="704" y="34"/>
      <point x="602" y="-24"/>
      <point x="433" y="-24" type="curve" smooth="yes"/>
      <point x="238" y="-24"/>
      <point x="108" y="116"/>
      <point x="108" y="286" type="curve" smooth="yes"/>
      <point x="108" y="298"/>
      <point x="109" y="310"/>
    </contour>
    <contour>
      <point x="304" y="318" type="curve" smooth="yes"/>
      <point x="304" y="160"/>
      <point x="393" y="103"/>
      <point x="540" y="103" type="curve" smooth="yes"/>
      <point x="619" y="103"/>
      <point x="712" y="149"/>
      <point x="753" y="189" type="curve"/>
      <point x="753" y="313"/>
      <point x="754" y="437"/>
      <point x="755" y="562" type="curve"/>
      <point x="586" y="562"/>
      <point x="304" y="512"/>
    </contour>
  </outline>
</glyph>
<glyph name="Eogonek" format="1">
  <advance width="1319"/>
  <unicode hex="0118"/>
  <outline>
    <contour>
      <point x="102" y="0" type="line"/>
      <point x="102" y="85" type="line"/>
      <point x="271" y="115" type="line"/>
      <point x="271" y="1437" type="line"/>
      <point x="106" y="1455" type="line"/>
      <point x="106" y="1553" type="line"/>
      <point x="1144" y="1553" type="line"/>
      <point x="1173" y="1267" type="line"/>
      <point x="1063" y="1267" type="line"/>
      <point x="1017" y="1435" type="line"/>
      <point x="465" y="1448" type="line"/>
      <point x="465" y="865" type="line"/>
      <point x="837" y="872" type="line"/>
      <point x="867" y="1029" type="line"/>
      <point x="969" y="1029" type="line"/>
      <point x="969" y="599" type="line"/>
      <point x="867" y="599" type="line"/>
      <point x="837" y="752" type="line"/>
      <point x="465" y="758" type="line"/>
      <point x="465" y="108" type="line"/>
      <point x="1059" y="127" type="line"/>
      <point x="1159" y="334" type="line"/>
      <point x="1256" y="310" type="line"/>
      <point x="1211" y="0" type="line"/>
      <point x="1092" y="-47"/>
      <point x="932" y="-190"/>
      <point x="932" y="-280" type="curve" smooth="yes"/>
      <point x="932" y="-373"/>
      <point x="976" y="-393"/>
      <point x="1059" y="-399" type="curve" smooth="yes"/>
      <point x="1143" y="-405"/>
      <point x="1242" y="-343"/>
      <point x="1275" y="-328" type="curve"/>
      <point x="1297" y="-416" type="line"/>
      <point x="1247" y="-455"/>
      <point x="1155" y="-527"/>
      <point x="984" y="-527" type="curve" smooth="yes"/>
      <point x="973" y="-527"/>
      <point x="962" y="-527"/>
      <point x="951" y="-526" type="curve" smooth="yes"/>
      <point x="805" y="-518"/>
      <point x="753" y="-425"/>
      <point x="753" y="-338" type="curve" smooth="yes"/>
      <point x="753" y="-215"/>
      <point x="907" y="-66"/>
      <point x="1047" y="0" type="curve"/>
    </contour>
  </outline>
</glyph>
<glyph name="Itilde" format="1">
  <advance width="763"/>
  <unicode hex="0128"/>
  <outline>
    <contour>
      <point x="39" y="1677" type="curve"/>
      <point x="-13" y="1750" type="line"/>
      <point x="37" y="1843"/>
      <point x="159" y="1920"/>
      <point x="264" y="1920" type="curve" smooth="yes"/>
      <point x="395" y="1920"/>
      <point x="427" y="1794"/>
      <point x="524" y="1794" type="curve" smooth="yes"/>
      <point x="601" y="1794"/>
      <point x="667" y="1833"/>
      <point x="709" y="1875" type="curve"/>
      <point x="761" y="1802" type="line"/>
      <point x="711" y="1709"/>
      <point x="589" y="1631"/>
      <point x="484" y="1631" type="curve" smooth="yes"/>
      <point x="353" y="1631"/>
      <point x="322" y="1761"/>
      <point x="224" y="1761" type="curve" smooth="yes"/>
      <point x="154" y="1761"/>
      <point x="80" y="1718"/>
    </contour>
    <contour>
      <point x="105" y="0" type="line"/>
      <point x="105" y="85" type="line"/>
      <point x="284" y="114" type="line"/>
      <point x="284" y="1438" type="line"/>
      <point x="109" y="1455" type="line"/>
      <point x="109" y="1553" type="line"/>
      <point x="652" y="1553" type="line"/>
      <point x="652" y="1455" type="line"/>
      <point x="479" y="1437" type="line"/>
      <point x="479" y="115" type="line"/>
      <point x="661" y="85" type="line"/>
      <point x="661" y="0" type="line"/>
    </contour>
  </outline>
</glyph>
<glyph name="itilde" format="1">
  <advance width="683"/>
  <unicode hex="0129"/>
  <outline>
    <contour>
      <point x="8" y="1417" type="curve"/>
      <point x="-44" y="1490" type="line"/>
      <point x="6" y="1583"/>
      <point x="128" y="1665"/>
      <point x="233" y="1665" type="curve" smooth="yes"/>
      <point x="364" y="1665"/>
      <point x="396" y="1530"/>
      <point x="493" y="1530" type="curve" smooth="yes"/>
      <point x="570" y="1530"/>
      <point x="636" y="1583"/>
      <point x="678" y="1625" type="curve"/>
      <point x="730" y="1552" type="line"/>
      <point x="680" y="1459"/>
      <point x="558" y="1376"/>
      <point x="453" y="1376" type="curve" smooth="yes"/>
      <point x="322" y="1376"/>
      <point x="291" y="1512"/>
      <point x="193" y="1512" type="curve" smooth="yes"/>
      <point x="115" y="1512"/>
      <point x="49" y="1458"/>
    </contour>
    <contour>
      <point x="112" y="0" type="line"/>
      <point x="112" y="85" type="line"/>
      <point x="282" y="106" type="line"/>
      <point x="282" y="925" type="line"/>
      <point x="144" y="998" type="line"/>
      <point x="144" y="1060" type="line"/>
      <point x="421" y="1139" type="line"/>
      <point x="466" y="1119" type="line"/>
      <point x="466" y="106" type="line"/>
      <point x="628" y="85" type="line"/>
      <point x="628" y="0" type="line"/>
    </contour>
  </outline>
</glyph>
<glyph name="dotlessi" format="1">
  <advance width="683"/>
  <unicode hex="0131"/>
  <outline>
    <contour>
      <point x="112" y="0" type="line"/>
      <point x="112" y="85" type="line"/>
      <point x="282" y="106" type="line"/>
      <point x="282" y="925" type="line"/>
      <point x="144" y="998" type="line"/>
      <point x="144" y="1060" type="line"/>
      <point x="421" y="1139" type="line"/>
      <point x="466" y="1119" type="line"/>
      <point x="466" y="106" type="line"/>
      <point x="628" y="85" type="line"/>
      <point x="628" y="0" type="line"/>
    </contour>
  </outline>
</glyph>
<glyph name="IJ" format="1">
  <advance width="1483"/>
  <unicode hex="0132"/>
  <outline>
    <contour>
      <point x="677" y="-319" type="line"/>
      <point x="826" y="-271"/>
      <point x="950" y="-187"/>
      <point x="1001" y="-59" type="curve"/>
      <point x="1041" y="58"/>
      <point x="1047" y="197"/>
      <point x="1047" y="401" type="curve" smooth="yes"/>
      <point x="1047" y="1438" type="line"/>
      <point x="882" y="1455" type="line"/>
      <point x="882" y="1553" type="line"/>
      <point x="1405" y="1553" type="line"/>
      <point x="1405" y="1455" type="line"/>
      <point x="1242" y="1437" type="line"/>
      <point x="1242" y="550" type="line" smooth="yes"/>
      <point x="1242" y="484"/>
      <point x="1243" y="420"/>
      <point x="1243" y="358" type="curve" smooth="yes"/>
      <point x="1243" y="244"/>
      <point x="1240" y="139"/>
      <point x="1223" y="49" type="curve"/>
      <point x="1170" y="-214"/>
      <point x="940" y="-358"/>
      <point x="729" y="-390" type="curve"/>
    </contour>
    <contour>
      <point x="105" y="0" type="line"/>
      <point x="105" y="85" type="line"/>
      <point x="284" y="114" type="line"/>
      <point x="284" y="1438" type="line"/>
      <point x="109" y="1455" type="line"/>
      <point x="109" y="1553" type="line"/>
      <point x="652" y="1553" type="line"/>
      <point x="652" y="1455" type="line"/>
      <point x="479" y="1437" type="line"/>
      <point x="479" y="115" type="line"/>
      <point x="661" y="85" type="line"/>
      <point x="661" y="0" type="line"/>
    </contour>
  </outline>
</glyph>
<glyph name="ij" format="1">
  <advance width="1333"/>
  <unicode hex="0133"/>
  <outline>
    <contour>
      <point x="1009" y="1404" type="curve" smooth="yes"/>
      <point x="944" y="1404"/>
      <point x="883" y="1450"/>
      <point x="883" y="1527" type="curve" smooth="yes"/>
      <point x="883" y="1610"/>
      <point x="961" y="1673"/>
      <point x="1032" y="1673" type="curve" smooth="yes"/>
      <point x="1120" y="1673"/>
      <point x="1159" y="1617"/>
      <point x="1159" y="1549" type="curve" smooth="yes"/>
      <point x="1159" y="1461"/>
      <point x="1084" y="1404"/>
    </contour>
    <contour>
      <point x="333" y="1375" type="curve" smooth="yes"/>
      <point x="268" y="1375"/>
      <point x="207" y="1421"/>
      <point x="207" y="1498" type="curve" smooth="yes"/>
      <point x="207" y="1581"/>
      <point x="285" y="1644"/>
      <point x="356" y="1644" type="curve" smooth="yes"/>
      <point x="444" y="1644"/>
      <point x="483" y="1588"/>
      <point x="483" y="1520" type="curve" smooth="yes"/>
      <point x="483" y="1432"/>
      <point x="408" y="1375"/>
    </contour>
    <contour>
      <point x="674" y="-362" type="line"/>
      <point x="696" y="-369"/>
      <point x="760" y="-373"/>
      <point x="784" y="-373" type="curve" smooth="yes"/>
      <point x="913" y="-373"/>
      <point x="958" y="-281"/>
      <point x="958" y="-2" type="curve" smooth="yes"/>
      <point x="958" y="925" type="line"/>
      <point x="819" y="999" type="line"/>
      <point x="819" y="1059" type="line"/>
      <point x="1100" y="1139" type="line"/>
      <point x="1146" y="1119" type="line"/>
      <point x="1146" y="-16" type="line" smooth="yes"/>
      <point x="1146" y="-328"/>
      <point x="1004" y="-515"/>
      <point x="783" y="-515" type="curve" smooth="yes"/>
      <point x="756" y="-515"/>
      <point x="685" y="-509"/>
      <point x="674" y="-500" type="curve"/>
    </contour>
    <contour>
      <point x="112" y="0" type="line"/>
      <point x="112" y="85" type="line"/>
      <point x="282" y="106" type="line"/>
      <point x="282" y="925" type="line"/>
      <point x="144" y="998" type="line"/>
      <point x="144" y="1060" type="line"/>
      <point x="421" y="1139" type="line"/>
      <point x="466" y="1119" type="line"/>
      <point x="466" y="106" type="line"/>
      <point x="628" y="85" type="line"/>
      <point x="628" y="0" type="line"/>
    </contour>
  </outline>
</glyph>
<glyph name="jcircumflex" format="1">
  <advance width="650"/>
  <unicode hex="0135"/>
  <outline>
    <contour>
      <point x="76" y="1335" type="line"/>
      <point x="1" y="1381" type="line"/>
      <point x="274" y="1775" type="line"/>
      <point x="463" y="1775" type="line"/>
      <point x="725" y="1382" type="line"/>
      <point x="640" y="1336" type="line"/>
      <point x="368" y="1603" type="line"/>
    </contour>
    <contour>
      <point x="275" y="-2" type="curve" smooth="yes"/>
      <point x="275" y="925" type="line"/>
      <point x="136" y="999" type="line"/>
      <point x="136" y="1059" type="line"/>
      <point x="417" y="1139" type="line"/>
      <point x="463" y="1119" type="line"/>
      <point x="463" y="-16" type="line" smooth="yes"/>
      <point x="463" y="-328"/>
      <point x="321" y="-515"/>
      <point x="100" y="-515" type="curve" smooth="yes"/>
      <point x="73" y="-515"/>
      <point x="2" y="-509"/>
      <point x="-9" y="-500" type="curve"/>
      <point x="-9" y="-362" type="line"/>
      <point x="13" y="-369"/>
      <point x="77" y="-373"/>
      <point x="101" y="-373" type="curve" smooth="yes"/>
      <point x="230" y="-373"/>
      <point x="275" y="-281"/>
    </contour>
  </outline>
</glyph>
<glyph name="Kcommaaccent" format="1">
  <advance width="1419"/>
  <unicode hex="0136"/>
  <outline>
    <contour>
      <point x="106" y="0" type="line"/>
      <point x="106" y="85" type="line"/>
      <point x="275" y="114" type="line"/>
      <point x="275" y="1438" type="line"/>
      <point x="110" y="1455" type="line"/>
      <point x="110" y="1553" type="line"/>
      <point x="633" y="1553" type="line"/>
      <point x="633" y="1455" type="line"/>
      <point x="470" y="1437" type="line"/>
      <point x="470" y="748" type="line"/>
      <point x="1039" y="1437" type="line"/>
      <point x="884" y="1455" type="line"/>
      <point x="884" y="1488"/>
      <point x="883" y="1520"/>
      <point x="883" y="1553" type="curve"/>
      <point x="1382" y="1553" type="line"/>
      <point x="1382" y="1455" type="line"/>
      <point x="1219" y="1437" type="line"/>
      <point x="750" y="897" type="line"/>
      <point x="881" y="747"/>
      <point x="1217" y="121"/>
      <point x="1283" y="122" type="curve"/>
      <point x="1443" y="85" type="line"/>
      <point x="1443" y="0" type="line"/>
      <point x="1134" y="0" type="line" smooth="yes"/>
      <point x="1063" y="0"/>
      <point x="781" y="621"/>
      <point x="636" y="766" type="curve"/>
      <point x="470" y="574" type="line"/>
      <point x="470" y="113" type="line"/>
      <point x="653" y="85" type="line"/>
      <point x="653" y="0" type="line"/>
    </contour>
    <contour>
      <point x="714" y="-145" type="line"/>
      <point x="816" y="-41" type="line"/>
      <point x="954" y="-77"/>
      <point x="1021" y="-197"/>
      <point x="1021" y="-295" type="curve" smooth="yes"/>
      <point x="1021" y="-476"/>
      <point x="860" y="-616"/>
      <point x="771" y="-640" type="curve"/>
      <point x="715" y="-590" type="line"/>
      <point x="715" y="-564" type="line"/>
      <point x="791" y="-529"/>
      <point x="816" y="-422"/>
      <point x="816" y="-335" type="curve" smooth="yes"/>
      <point x="816" y="-259"/>
      <point x="750" y="-199"/>
      <point x="714" y="-199" type="curve"/>
    </contour>
  </outline>
</glyph>
<glyph name="kcommaaccent" format="1">
  <advance width="1274"/>
  <unicode hex="0137"/>
  <outline>
    <contour>
      <point x="110" y="0" type="line"/>
      <point x="110" y="85" type="line"/>
      <point x="274" y="107" type="line"/>
      <point x="274" y="1460" type="line"/>
      <point x="94" y="1496" type="line"/>
      <point x="94" y="1583" type="line"/>
      <point x="426" y="1625" type="line"/>
      <point x="466" y="1602" type="line"/>
      <point x="466" y="704" type="line"/>
      <point x="461" y="550" type="line"/>
      <point x="906" y="1009" type="line"/>
      <point x="755" y="1023" type="line"/>
      <point x="755" y="1129" type="line"/>
      <point x="1227" y="1129" type="line"/>
      <point x="1227" y="1023" type="line"/>
      <point x="1075" y="1007" type="line"/>
      <point x="735" y="665" type="line"/>
      <point x="1158" y="106" type="line"/>
      <point x="1294" y="85" type="line"/>
      <point x="1294" y="0" type="line"/>
      <point x="809" y="0" type="line"/>
      <point x="809" y="85" type="line"/>
      <point x="948" y="108" type="line"/>
      <point x="619" y="569" type="line"/>
      <point x="460" y="411" type="line"/>
      <point x="466" y="217" type="line"/>
      <point x="466" y="105" type="line"/>
      <point x="610" y="85" type="line"/>
      <point x="610" y="0" type="line"/>
    </contour>
    <contour>
      <point x="599" y="-145" type="line"/>
      <point x="701" y="-41" type="line"/>
      <point x="839" y="-77"/>
      <point x="906" y="-197"/>
      <point x="906" y="-295" type="curve" smooth="yes"/>
      <point x="906" y="-476"/>
      <point x="745" y="-616"/>
      <point x="656" y="-640" type="curve"/>
      <point x="600" y="-590" type="line"/>
      <point x="600" y="-564" type="line"/>
      <point x="676" y="-529"/>
      <point x="701" y="-422"/>
      <point x="701" y="-335" type="curve" smooth="yes"/>
      <point x="701" y="-259"/>
      <point x="635" y="-199"/>
      <point x="599" y="-199" type="curve"/>
    </contour>
  </outline>
</glyph>
<glyph name="kgreenlandic" format="1">
  <advance width="1274"/>
  <unicode hex="0138"/>
  <outline>
    <contour>
      <point x="110" y="0" type="line"/>
      <point x="110" y="85" type="line"/>
      <point x="274" y="107" type="line"/>
      <point x="274" y="982" type="line"/>
      <point x="94" y="1018" type="line"/>
      <point x="94" y="1105" type="line"/>
      <point x="426" y="1147" type="line"/>
      <point x="466" y="1124" type="line"/>
      <point x="466" y="704" type="line"/>
      <point x="461" y="550" type="line"/>
      <point x="906" y="1009" type="line"/>
      <point x="755" y="1023" type="line"/>
      <point x="755" y="1129" type="line"/>
      <point x="1227" y="1129" type="line"/>
      <point x="1227" y="1023" type="line"/>
      <point x="1075" y="1007" type="line"/>
      <point x="735" y="665" type="line"/>
      <point x="1158" y="106" type="line"/>
      <point x="1294" y="85" type="line"/>
      <point x="1294" y="0" type="line"/>
      <point x="809" y="0" type="line"/>
      <point x="809" y="85" type="line"/>
      <point x="948" y="108" type="line"/>
      <point x="619" y="569" type="line"/>
      <point x="460" y="411" type="line"/>
      <point x="466" y="217" type="line"/>
      <point x="466" y="105" type="line"/>
      <point x="610" y="85" type="line"/>
      <point x="610" y="0" type="line"/>
    </contour>
  </outline>
</glyph>
<glyph name="Lslash" format="1">
  <advance width="1244"/>
  <unicode hex="0141"/>
  <outline>
    <contour>
      <point x="106" y="0" type="line"/>
      <point x="106" y="85" type="line"/>
      <point x="275" y="115" type="line"/>
      <point x="275" y="563" type="line"/>
      <point x="96" y="495" type="line"/>
      <point x="96" y="495"/>
      <point x="98" y="638"/>
      <point x="97" y="640" type="curve" smooth="yes"/>
      <point x="96" y="640"/>
      <point x="170" y="670"/>
      <point x="275" y="712" type="curve"/>
      <point x="275" y="1427" type="line"/>
      <point x="110" y="1444" type="line"/>
      <point x="110" y="1553" type="line"/>
      <point x="648" y="1553" type="line"/>
      <point x="648" y="1444" type="line"/>
      <point x="471" y="1427" type="line"/>
      <point x="470" y="789" type="line"/>
      <point x="724" y="890"/>
      <point x="1015" y="1005"/>
      <point x="1015" y="1005" type="curve"/>
      <point x="1015" y="845" type="line"/>
      <point x="470" y="637" type="line"/>
      <point x="469" y="112" type="line"/>
      <point x="1004" y="136" type="line"/>
      <point x="1127" y="374" type="line"/>
      <point x="1214" y="331" type="line"/>
      <point x="1149" y="0" type="line"/>
    </contour>
  </outline>
</glyph>
<glyph name="rcaron" format="1">
  <advance width="923"/>
  <unicode hex="0159"/>
  <outline>
    <contour>
      <point x="488" y="1335" type="line"/>
      <point x="216" y="1728" type="line"/>
      <point x="301" y="1774" type="line"/>
      <point x="583" y="1507" type="line"/>
      <point x="865" y="1775" type="line"/>
      <point x="940" y="1729" type="line"/>
      <point x="677" y="1335" type="line"/>
    </contour>
    <contour>
      <point x="112" y="0" type="line"/>
      <point x="112" y="85" type="line"/>
      <point x="274" y="106" type="line"/>
      <point x="274" y="920" type="line"/>
      <point x="132" y="998" type="line"/>
      <point x="132" y="1060" type="line"/>
      <point x="396" y="1139" type="line"/>
      <point x="443" y="1119" type="line"/>
      <point x="443" y="965" type="line"/>
      <point x="493" y="1041"/>
      <point x="663" y="1139"/>
      <point x="785" y="1139" type="curve" smooth="yes"/>
      <point x="829" y="1139"/>
      <point x="867" y="1137"/>
      <point x="882" y="1132" type="curve"/>
      <point x="882" y="927" type="line"/>
      <point x="839" y="944"/>
      <point x="797" y="961"/>
      <point x="705" y="961" type="curve" smooth="yes"/>
      <point x="597" y="961"/>
      <point x="529" y="929"/>
      <point x="468" y="891" type="curve"/>
      <point x="468" y="109" type="line"/>
      <point x="753" y="85" type="line"/>
      <point x="753" y="0" type="line"/>
    </contour>
  </outline>
</glyph>
<glyph name="Scaron" format="1">
  <advance width="1229"/>
  <unicode hex="0160"/>
  <outline>
    <contour>
      <point x="549" y="1616" type="line"/>
      <point x="312" y="1871" type="line"/>
      <point x="399" y="1920" type="line"/>
      <point x="643" y="1752" type="line"/>
      <point x="893" y="1920" type="line"/>
      <point x="971" y="1874" type="line"/>
      <point x="738" y="1616" type="line"/>
    </contour>
    <contour>
      <point x="148" y="61" type="curve"/>
      <point x="148" y="383" type="line"/>
      <point x="236" y="383" type="line"/>
      <point x="299" y="184" type="line"/>
      <point x="378" y="101"/>
      <point x="513" y="78"/>
      <point x="631" y="78" type="curve" smooth="yes"/>
      <point x="777" y="78"/>
      <point x="936" y="157"/>
      <point x="936" y="343" type="curve" smooth="yes"/>
      <point x="936" y="513"/>
      <point x="757" y="616"/>
      <point x="569" y="720" type="curve" smooth="yes"/>
      <point x="367" y="832"/>
      <point x="158" y="957"/>
      <point x="158" y="1181" type="curve" smooth="yes"/>
      <point x="158" y="1461"/>
      <point x="440" y="1567"/>
      <point x="639" y="1567" type="curve" smooth="yes"/>
      <point x="835" y="1567"/>
      <point x="967" y="1525"/>
      <point x="1026" y="1490" type="curve"/>
      <point x="1026" y="1213" type="line"/>
      <point x="941" y="1213" type="line"/>
      <point x="863" y="1405" type="line"/>
      <point x="816" y="1448"/>
      <point x="721" y="1469"/>
      <point x="624" y="1468" type="curve" smooth="yes"/>
      <point x="516" y="1467"/>
      <point x="339" y="1409"/>
      <point x="339" y="1214" type="curve" smooth="yes"/>
      <point x="339" y="1061"/>
      <point x="499" y="964"/>
      <point x="674" y="870" type="curve" smooth="yes"/>
      <point x="886" y="756"/>
      <point x="1120" y="631"/>
      <point x="1120" y="397" type="curve" smooth="yes"/>
      <point x="1120" y="98"/>
      <point x="879" y="-23"/>
      <point x="604" y="-23" type="curve" smooth="yes"/>
      <point x="405" y="-23"/>
      <point x="205" y="26"/>
    </contour>
  </outline>
</glyph>
<glyph name="scaron" format="1">
  <advance width="1018"/>
  <unicode hex="0161"/>
  <outline>
    <contour>
      <point x="428" y="1335" type="line"/>
      <point x="156" y="1728" type="line"/>
      <point x="241" y="1774" type="line"/>
      <point x="523" y="1507" type="line"/>
      <point x="805" y="1775" type="line"/>
      <point x="880" y="1729" type="line"/>
      <point x="617" y="1335" type="line"/>
    </contour>
    <contour>
      <point x="163" y="61" type="curve"/>
      <point x="163" y="290" type="line"/>
      <point x="252" y="290" type="line"/>
      <point x="291" y="168" type="line"/>
      <point x="359" y="111"/>
      <point x="416" y="88"/>
      <point x="509" y="84" type="curve" smooth="yes"/>
      <point x="659" y="78"/>
      <point x="765" y="140"/>
      <point x="765" y="272" type="curve" smooth="yes"/>
      <point x="765" y="393"/>
      <point x="623" y="433"/>
      <point x="481" y="501" type="curve" smooth="yes"/>
      <point x="323" y="577"/>
      <point x="168" y="672"/>
      <point x="171" y="850" type="curve" smooth="yes"/>
      <point x="175" y="1057"/>
      <point x="392" y="1147"/>
      <point x="570" y="1152" type="curve" smooth="yes"/>
      <point x="703" y="1156"/>
      <point x="822" y="1118"/>
      <point x="882" y="1083" type="curve"/>
      <point x="882" y="869" type="line"/>
      <point x="797" y="869" type="line"/>
      <point x="754" y="981" type="line"/>
      <point x="717" y="1020"/>
      <point x="669" y="1051"/>
      <point x="581" y="1052" type="curve" smooth="yes"/>
      <point x="453" y="1053"/>
      <point x="359" y="1003"/>
      <point x="356" y="884" type="curve" smooth="yes"/>
      <point x="352" y="764"/>
      <point x="494" y="714"/>
      <point x="634" y="645" type="curve"/>
      <point x="782" y="577"/>
      <point x="949" y="505"/>
      <point x="949" y="318" type="curve" smooth="yes"/>
      <point x="949" y="92"/>
      <point x="755" y="-24"/>
      <point x="512" y="-24" type="curve" smooth="yes"/>
      <point x="392" y="-24"/>
      <point x="264" y="5"/>
    </contour>
  </outline>
</glyph>
<glyph name="Zacute" format="1">
  <advance width="1352"/>
  <unicode hex="0179"/>
  <outline>
    <contour>
      <point x="728" y="1607" type="curve"/>
      <point x="675" y="1661" type="line"/>
      <point x="981" y="1920" type="line"/>
      <point x="1127" y="1771" type="line"/>
      <point x="1002" y="1691"/>
      <point x="852" y="1629"/>
    </contour>
    <contour>
      <point x="118" y="0" type="line"/>
      <point x="92" y="89" type="line"/>
      <point x="960" y="1324" type="line"/>
      <point x="1063" y="1444" type="line"/>
      <point x="351" y="1421" type="line"/>
      <point x="256" y="1193" type="line"/>
      <point x="149" y="1212" type="line"/>
      <point x="181" y="1553" type="line"/>
      <point x="1254" y="1553" type="line"/>
      <point x="1282" y="1467" type="line"/>
      <point x="419" y="232" type="line"/>
      <point x="322" y="111" type="line"/>
      <point x="1071" y="149" type="line"/>
      <point x="1201" y="404" type="line"/>
      <point x="1300" y="380" type="line"/>
      <point x="1229" y="0" type="line"/>
    </contour>
  </outline>
</glyph>
<glyph name="Zcaron" format="1">
  <advance width="1352"/>
  <unicode hex="017D"/>
  <outline>
    <contour>
      <point x="646" y="1616" type="line"/>
      <point x="409" y="1871" type="line"/>
      <point x="496" y="1920" type="line"/>
      <point x="740" y="1752" type="line"/>
      <point x="990" y="1920" type="line"/>
      <point x="1068" y="1874" type="line"/>
      <point x="835" y="1616" type="line"/>
    </contour>
    <contour>
      <point x="118" y="0" type="line"/>
      <point x="92" y="89" type="line"/>
      <point x="960" y="1324" type="line"/>
      <point x="1063" y="1444" type="line"/>
      <point x="351" y="1421" type="line"/>
      <point x="256" y="1193" type="line"/>
      <point x="149" y="1212" type="line"/>
      <point x="181" y="1553" type="line"/>
      <point x="1254" y="1553" type="line"/>
      <point x="1282" y="1467" type="line"/>
      <point x="419" y="232" type="line"/>
      <point x="322" y="111" type="line"/>
      <point x="1071" y="149" type="line"/>
      <point x="1201" y="404" type="line"/>
      <point x="1300" y="380" type="line"/>
      <point x="1229" y="0" type="line"/>
    </contour>
  </outline>
</glyph>
<glyph name="florin" format="1">
  <advance width="1063"/>
  <unicode hex="0192"/>
  <outline>
    <contour>
      <point x="297" y="-356" type="line"/>
      <point x="399" y="984" type="line"/>
      <point x="179" y="984" type="line"/>
      <point x="185" y="1060" type="line"/>
      <point x="410" y="1119" type="line"/>
      <point x="415" y="1202" type="line"/>
      <point x="438" y="1500"/>
      <point x="694" y="1689"/>
      <point x="863" y="1689" type="curve" smooth="yes"/>
      <point x="954" y="1689"/>
      <point x="990" y="1679"/>
      <point x="1004" y="1672" type="curve"/>
      <point x="992" y="1502" type="line"/>
      <point x="973" y="1512"/>
      <point x="906" y="1533"/>
      <point x="811" y="1533" type="curve" smooth="yes"/>
      <point x="703" y="1533"/>
      <point x="631" y="1511"/>
      <point x="614" y="1284" type="curve" smooth="yes"/>
      <point x="602" y="1119" type="line"/>
      <point x="904" y="1119" type="line"/>
      <point x="893" y="984" type="line"/>
      <point x="591" y="984" type="line"/>
      <point x="489" y="-356" type="line"/>
    </contour>
  </outline>
</glyph>
<glyph name="circumflex" format="1">
  <advance width="1063"/>
  <unicode hex="02C6"/>
  <outline>
    <contour>
      <point x="239" y="1335" type="line"/>
      <point x="164" y="1381" type="line"/>
      <point x="437" y="1775" type="line"/>
      <point x="626" y="1775" type="line"/>
      <point x="888" y="1382" type="line"/>
      <point x="803" y="1336" type="line"/>
      <point x="531" y="1603" type="line"/>
    </contour>
  </outline>
</glyph>
<glyph name="caron" format="1">
  <advance width="1063"/>
  <unicode hex="02C7"/>
  <outline>
    <contour>
      <point x="436" y="1335" type="line"/>
      <point x="164" y="1728" type="line"/>
      <point x="249" y="1774" type="line"/>
      <point x="531" y="1507" type="line"/>
      <point x="813" y="1775" type="line"/>
      <point x="888" y="1729" type="line"/>
      <point x="625" y="1335" type="line"/>
    </contour>
  </outline>
</glyph>
<glyph name="breve" format="1">
  <advance width="1063"/>
  <unicode hex="02D8"/>
  <outline>
    <contour>
      <point x="531" y="1379" type="curve" smooth="yes"/>
      <point x="328" y="1379"/>
      <point x="197" y="1535"/>
      <point x="197" y="1698" type="curve"/>
      <point x="291" y="1698" type="line"/>
      <point x="308" y="1673"/>
      <point x="341" y="1523"/>
      <point x="532" y="1523" type="curve" smooth="yes"/>
      <point x="724" y="1523"/>
      <point x="756" y="1672"/>
      <point x="775" y="1699" type="curve"/>
      <point x="865" y="1699" type="line"/>
      <point x="865" y="1536"/>
      <point x="723" y="1379"/>
    </contour>
  </outline>
</glyph>
<glyph name="ogonek" format="1">
  <advance width="709"/>
  <unicode hex="02DB"/>
  <outline>
    <contour>
      <point x="234" y="0" type="curve"/>
      <point x="307" y="8" type="line"/>
      <point x="398" y="0" type="line"/>
      <point x="279" y="-47"/>
      <point x="119" y="-190"/>
      <point x="119" y="-280" type="curve" smooth="yes"/>
      <point x="119" y="-373"/>
      <point x="163" y="-393"/>
      <point x="246" y="-399" type="curve" smooth="yes"/>
      <point x="330" y="-405"/>
      <point x="429" y="-343"/>
      <point x="462" y="-328" type="curve"/>
      <point x="484" y="-416" type="line"/>
      <point x="434" y="-455"/>
      <point x="342" y="-527"/>
      <point x="171" y="-527" type="curve" smooth="yes"/>
      <point x="160" y="-527"/>
      <point x="149" y="-527"/>
      <point x="138" y="-526" type="curve" smooth="yes"/>
      <point x="-8" y="-518"/>
      <point x="-60" y="-425"/>
      <point x="-60" y="-338" type="curve" smooth="yes"/>
      <point x="-60" y="-215"/>
      <point x="94" y="-66"/>
    </contour>
  </outline>
</glyph>
<glyph name="Delta" format="1">
  <advance width="1770"/>
  <unicode hex="0394"/>
  <unicode hex="2206"/>
  <outline>
    <contour>
      <point x="148" y="22" type="line"/>
      <point x="836" y="1516" type="line"/>
      <point x="868" y="1516" type="line"/>
      <point x="1621" y="27" type="line"/>
      <point x="1605" y="1" type="line"/>
      <point x="162" y="1" type="line"/>
    </contour>
    <contour>
      <point x="317" y="120" type="line"/>
      <point x="1355" y="120" type="line"/>
      <point x="815" y="1213" type="line"/>
    </contour>
  </outline>
</glyph>
<glyph name="pi" format="1">
  <advance width="1592"/>
  <unicode hex="03C0"/>
  <outline>
    <contour>
      <point x="182" y="114" type="line"/>
      <point x="199" y="118"/>
      <point x="275" y="143"/>
      <point x="332" y="182" type="curve" smooth="yes"/>
      <point x="449" y="262"/>
      <point x="470" y="353"/>
      <point x="478" y="489" type="curve"/>
      <point x="499" y="926" type="line"/>
      <point x="439" y="926" type="line"/>
      <point x="362" y="927"/>
      <point x="280" y="887"/>
      <point x="257" y="825" type="curve"/>
      <point x="153" y="838" type="line"/>
      <point x="149" y="858"/>
      <point x="150" y="901"/>
      <point x="167" y="935" type="curve" smooth="yes"/>
      <point x="227" y="1054"/>
      <point x="337" y="1119"/>
      <point x="474" y="1119" type="curve" smooth="yes"/>
      <point x="1137" y="1119" type="line" smooth="yes"/>
      <point x="1226" y="1119"/>
      <point x="1295" y="1145"/>
      <point x="1336" y="1226" type="curve"/>
      <point x="1440" y="1226" type="line"/>
      <point x="1428" y="1043"/>
      <point x="1296" y="930"/>
      <point x="1122" y="925" type="curve"/>
      <point x="1089" y="261" type="line"/>
      <point x="1089" y="175"/>
      <point x="1120" y="164"/>
      <point x="1139" y="164" type="curve" smooth="yes"/>
      <point x="1199" y="164"/>
      <point x="1273" y="215"/>
      <point x="1299" y="286" type="curve"/>
      <point x="1408" y="286" type="line"/>
      <point x="1380" y="170"/>
      <point x="1251" y="-24"/>
      <point x="1086" y="-24" type="curve" smooth="yes"/>
      <point x="977" y="-24"/>
      <point x="955" y="83"/>
      <point x="955" y="198" type="curve" smooth="yes"/>
      <point x="955" y="225"/>
      <point x="956" y="253"/>
      <point x="958" y="280" type="curve" smooth="yes"/>
      <point x="999" y="925" type="line"/>
      <point x="618" y="926" type="line"/>
      <point x="598" y="430" type="line"/>
      <point x="581" y="201"/>
      <point x="558" y="136"/>
      <point x="466" y="52" type="curve" smooth="yes"/>
      <point x="427" y="16"/>
      <point x="379" y="-8"/>
      <point x="326" y="-24" type="curve"/>
    </contour>
  </outline>
</glyph>
<glyph name="endash" format="1">
  <advance width="1380"/>
  <unicode hex="2013"/>
  <outline>
    <contour>
      <point x="178" y="727" type="line"/>
      <point x="178" y="874" type="line"/>
      <point x="1202" y="874" type="line"/>
      <point x="1202" y="727" type="line"/>
    </contour>
  </outline>
</glyph>
<glyph name="emdash" format="1">
  <advance width="2404"/>
  <unicode hex="2014"/>
  <outline>
    <contour>
      <point x="178" y="727" type="line"/>
      <point x="178" y="874" type="line"/>
      <point x="2226" y="874" type="line"/>
      <point x="2226" y="727" type="line"/>
    </contour>
  </outline>
</glyph>
<glyph name="quoteright" format="1">
  <advance width="774"/>
  <unicode hex="2019"/>
  <outline>
    <contour>
      <point x="256" y="960" type="curve"/>
      <point x="209" y="1020" type="line"/>
      <point x="209" y="1046" type="line"/>
      <point x="306" y="1078"/>
      <point x="388" y="1210"/>
      <point x="388" y="1338" type="curve" smooth="yes"/>
      <point x="388" y="1439"/>
      <point x="322" y="1539"/>
      <point x="245" y="1547" type="curve"/>
      <point x="245" y="1592" type="line"/>
      <point x="357" y="1737" type="line"/>
      <point x="515" y="1697"/>
      <point x="574" y="1523"/>
      <point x="574" y="1415" type="curve" smooth="yes"/>
      <point x="574" y="1188"/>
      <point x="412" y="1024"/>
    </contour>
  </outline>
</glyph>
<glyph name="quotesinglbase" format="1">
  <advance width="774"/>
  <unicode hex="201A"/>
  <outline>
    <contour>
      <point x="245" y="86" type="curve"/>
      <point x="245" y="131" type="line"/>
      <point x="357" y="276" type="line"/>
      <point x="515" y="236"/>
      <point x="574" y="62"/>
      <point x="574" y="-46" type="curve" smooth="yes"/>
      <point x="574" y="-273"/>
      <point x="412" y="-437"/>
      <point x="256" y="-501" type="curve"/>
      <point x="209" y="-441" type="line"/>
      <point x="209" y="-415" type="line"/>
      <point x="306" y="-383"/>
      <point x="388" y="-251"/>
      <point x="388" y="-123" type="curve" smooth="yes"/>
      <point x="388" y="-22"/>
      <point x="322" y="78"/>
    </contour>
  </outline>
</glyph>
<glyph name="quotedblleft" format="1">
  <advance width="1301"/>
  <unicode hex="201C"/>
  <outline>
    <contour>
      <point x="944" y="940" type="line"/>
      <point x="786" y="980"/>
      <point x="727" y="1154"/>
      <point x="727" y="1262" type="curve" smooth="yes"/>
      <point x="727" y="1489"/>
      <point x="889" y="1653"/>
      <point x="1045" y="1717" type="curve"/>
      <point x="1092" y="1657" type="line"/>
      <point x="1092" y="1631" type="line"/>
      <point x="995" y="1599"/>
      <point x="913" y="1467"/>
      <point x="913" y="1339" type="curve" smooth="yes"/>
      <point x="913" y="1238"/>
      <point x="979" y="1138"/>
      <point x="1056" y="1130" type="curve"/>
      <point x="1056" y="1085" type="line"/>
    </contour>
    <contour>
      <point x="417" y="940" type="line"/>
      <point x="259" y="980"/>
      <point x="200" y="1154"/>
      <point x="200" y="1262" type="curve" smooth="yes"/>
      <point x="200" y="1489"/>
      <point x="362" y="1653"/>
      <point x="518" y="1717" type="curve"/>
      <point x="565" y="1657" type="line"/>
      <point x="565" y="1631" type="line"/>
      <point x="468" y="1599"/>
      <point x="386" y="1467"/>
      <point x="386" y="1339" type="curve" smooth="yes"/>
      <point x="386" y="1238"/>
      <point x="452" y="1138"/>
      <point x="529" y="1130" type="curve"/>
      <point x="529" y="1085" type="line"/>
    </contour>
  </outline>
</glyph>
<glyph name="daggerdbl" format="1">
  <advance width="923"/>
  <unicode hex="2021"/>
  <outline>
    <contour>
      <point x="91" y="482" type="line"/>
      <point x="92" y="629" type="line"/>
      <point x="393" y="625" type="line"/>
      <point x="373" y="999" type="line"/>
      <point x="377" y="1135" type="line"/>
      <point x="91" y="1131" type="line"/>
      <point x="92" y="1278" type="line"/>
      <point x="393" y="1274" type="line"/>
      <point x="373" y="1472" type="line"/>
      <point x="368" y="1648" type="line"/>
      <point x="555" y="1648" type="line"/>
      <point x="550" y="1472" type="line"/>
      <point x="530" y="1274" type="line"/>
      <point x="831" y="1278" type="line"/>
      <point x="832" y="1131" type="line"/>
      <point x="546" y="1135" type="line"/>
      <point x="550" y="999" type="line"/>
      <point x="530" y="625" type="line"/>
      <point x="831" y="629" type="line"/>
      <point x="832" y="482" type="line"/>
      <point x="546" y="486" type="line"/>
      <point x="550" y="351" type="line"/>
      <point x="508" y="-366" type="line"/>
      <point x="415" y="-366" type="line"/>
      <point x="373" y="351" type="line"/>
      <point x="377" y="486" type="line"/>
    </contour>
  </outline>
</glyph>
<glyph name="ellipsis" format="1">
  <advance width="2118"/>
  <unicode hex="2026"/>
  <outline>
    <contour>
      <point x="1627" y="101" type="curve" smooth="yes"/>
      <point x="1627" y="184"/>
      <point x="1705" y="247"/>
      <point x="1776" y="247" type="curve" smooth="yes"/>
      <point x="1864" y="247"/>
      <point x="1903" y="191"/>
      <point x="1903" y="123" type="curve" smooth="yes"/>
      <point x="1903" y="35"/>
      <point x="1828" y="-22"/>
      <point x="1753" y="-22" type="curve" smooth="yes"/>
      <point x="1688" y="-22"/>
      <point x="1627" y="24"/>
    </contour>
    <contour>
      <point x="921" y="101" type="curve" smooth="yes"/>
      <point x="921" y="184"/>
      <point x="999" y="247"/>
      <point x="1070" y="247" type="curve" smooth="yes"/>
      <point x="1158" y="247"/>
      <point x="1197" y="191"/>
      <point x="1197" y="123" type="curve" smooth="yes"/>
      <point x="1197" y="35"/>
      <point x="1122" y="-22"/>
      <point x="1047" y="-22" type="curve" smooth="yes"/>
      <point x="982" y="-22"/>
      <point x="921" y="24"/>
    </contour>
    <contour>
      <point x="215" y="101" type="curve" smooth="yes"/>
      <point x="215" y="184"/>
      <point x="293" y="247"/>
      <point x="364" y="247" type="curve" smooth="yes"/>
      <point x="452" y="247"/>
      <point x="491" y="191"/>
      <point x="491" y="123" type="curve" smooth="yes"/>
      <point x="491" y="35"/>
      <point x="416" y="-22"/>
      <point x="341" y="-22" type="curve" smooth="yes"/>
      <point x="276" y="-22"/>
      <point x="215" y="24"/>
    </contour>
  </outline>
</glyph>
<glyph name="guilsinglleft" format="1">
  <advance width="1189"/>
  <unicode hex="2039"/>
  <outline>
    <contour>
      <point x="245" y="528" type="line"/>
      <point x="245" y="693" type="line"/>
      <point x="893" y="1075" type="line"/>
      <point x="944" y="990" type="line"/>
      <point x="430" y="614" type="line"/>
      <point x="944" y="254" type="line"/>
      <point x="893" y="163" type="line"/>
    </contour>
  </outline>
</glyph>
<glyph name="guilsinglright" format="1">
  <advance width="1189"/>
  <unicode hex="203A"/>
  <outline>
    <contour>
      <point x="296" y="163" type="line"/>
      <point x="245" y="248" type="line"/>
      <point x="758" y="623" type="line"/>
      <point x="245" y="984" type="line"/>
      <point x="296" y="1075" type="line"/>
      <point x="944" y="710" type="line"/>
      <point x="944" y="545" type="line"/>
    </contour>
  </outline>
</glyph>
<glyph name="fraction" format="1">
  <advance width="885"/>
  <unicode hex="2044"/>
  <outline>
    <contour>
      <point x="-10" y="-312" type="line"/>
      <point x="765" y="1881" type="line"/>
      <point x="895" y="1844" type="line"/>
      <point x="122" y="-343" type="line"/>
    </contour>
  </outline>
</glyph>
<glyph name="trademark" format="1">
  <advance width="2218"/>
  <unicode hex="2122"/>
  <outline>
    <contour>
      <point x="956" y="777" type="line"/>
      <point x="956" y="854" type="line"/>
      <point x="1065" y="869" type="line"/>
      <point x="1095" y="1460" type="line"/>
      <point x="991" y="1469" type="line"/>
      <point x="991" y="1553" type="line"/>
      <point x="1345" y="1553" type="line"/>
      <point x="1501" y="1127" type="line"/>
      <point x="1546" y="974" type="line"/>
      <point x="1732" y="1553" type="line"/>
      <point x="2039" y="1553" type="line"/>
      <point x="2039" y="1469" type="line"/>
      <point x="1943" y="1460" type="line"/>
      <point x="2004" y="870" type="line"/>
      <point x="2102" y="854" type="line"/>
      <point x="2102" y="777" type="line"/>
      <point x="1754" y="777" type="line"/>
      <point x="1754" y="854" type="line"/>
      <point x="1843" y="869" type="line"/>
      <point x="1812" y="1240" type="line"/>
      <point x="1803" y="1461" type="line"/>
      <point x="1783" y="1393" type="line"/>
      <point x="1572" y="769" type="line"/>
      <point x="1465" y="769" type="line"/>
      <point x="1251" y="1316" type="line"/>
      <point x="1195" y="1466" type="line"/>
      <point x="1191" y="1309" type="line"/>
      <point x="1172" y="869" type="line"/>
      <point x="1267" y="854" type="line"/>
      <point x="1267" y="777" type="line"/>
    </contour>
    <contour>
      <point x="315" y="777" type="line"/>
      <point x="315" y="854" type="line"/>
      <point x="436" y="869" type="line"/>
      <point x="436" y="1458" type="line"/>
      <point x="278" y="1447" type="line"/>
      <point x="235" y="1319" type="line"/>
      <point x="170" y="1318" type="line"/>
      <point x="190" y="1553" type="line"/>
      <point x="866" y="1553" type="line"/>
      <point x="866" y="1320" type="line"/>
      <point x="805" y="1315" type="line"/>
      <point x="778" y="1448" type="line"/>
      <point x="613" y="1460" type="line"/>
      <point x="613" y="869" type="line"/>
      <point x="742" y="854" type="line"/>
      <point x="742" y="777" type="line"/>
    </contour>
  </outline>
</glyph>
<glyph name="integral" format="1">
  <advance width="1063"/>
  <unicode hex="222B"/>
  <outline>
    <contour>
      <point x="130" y="-234" type="line"/>
      <point x="143" y="-290"/>
      <point x="220" y="-352"/>
      <point x="306" y="-352" type="curve" smooth="yes"/>
      <point x="490" y="-352"/>
      <point x="522" y="-248"/>
      <point x="522" y="-19" type="curve" smooth="yes"/>
      <point x="522" y="389"/>
      <point x="367" y="793"/>
      <point x="367" y="1199" type="curve" smooth="yes"/>
      <point x="367" y="1477"/>
      <point x="528" y="1713"/>
      <point x="789" y="1713" type="curve" smooth="yes"/>
      <point x="858" y="1713"/>
      <point x="1008" y="1694"/>
      <point x="1064" y="1566" type="curve"/>
      <point x="934" y="1475" type="line"/>
      <point x="921" y="1531"/>
      <point x="844" y="1593"/>
      <point x="758" y="1593" type="curve" smooth="yes"/>
      <point x="574" y="1593"/>
      <point x="542" y="1489"/>
      <point x="542" y="1260" type="curve" smooth="yes"/>
      <point x="542" y="853"/>
      <point x="697" y="449"/>
      <point x="697" y="42" type="curve" smooth="yes"/>
      <point x="697" y="-236"/>
      <point x="536" y="-472"/>
      <point x="275" y="-472" type="curve" smooth="yes"/>
      <point x="206" y="-472"/>
      <point x="56" y="-453"/>
      <point x="0" y="-325" type="curve"/>
    </contour>
  </outline>
</glyph>
<glyph name="lessequal" format="1">
  <advance width="1324"/>
  <unicode hex="2264"/>
  <outline>
    <contour>
      <point x="178" y="937" type="line"/>
      <point x="178" y="1020" type="line"/>
      <point x="1146" y="1443" type="line"/>
      <point x="1146" y="1271" type="line"/>
      <point x="416" y="977" type="line"/>
      <point x="1146" y="680" type="line"/>
      <point x="1146" y="508" type="line"/>
    </contour>
    <contour>
      <point x="178" y="177" type="line"/>
      <point x="178" y="324" type="line"/>
      <point x="1146" y="324" type="line"/>
      <point x="1146" y="177" type="line"/>
    </contour>
  </outline>
</glyph>
<glyph name="lozenge" format="1">
  <advance width="1415"/>
  <unicode hex="25CA"/>
  <outline>
    <contour>
      <point x="609" y="0" type="line"/>
      <point x="188" y="691" type="line"/>
      <point x="188" y="745" type="line"/>
      <point x="619" y="1416" type="line"/>
      <point x="806" y="1416" type="line"/>
      <point x="1227" y="725" type="line"/>
      <point x="1227" y="671" type="line"/>
      <point x="796" y="0" type="line"/>
    </contour>
    <contour>
      <point x="715" y="126" type="line"/>
      <point x="1056" y="679" type="line"/>
      <point x="699" y="1290" type="line"/>
      <point x="359" y="736" type="line"/>
    </contour>
  </outline>
</glyph>
<glyph name="fi" format="1">
  <advance width="1520"/>
  <unicode hex="FB01"/>
  <outline>
    <contour>
      <point x="110" y="0" type="line"/>
      <point x="110" y="85" type="line"/>
      <point x="311" y="107" type="line"/>
      <point x="311" y="984" type="line"/>
      <point x="91" y="984" type="line"/>
      <point x="91" y="1060" type="line"/>
      <point x="311" y="1119" type="line"/>
      <point x="311" y="1202" type="line" smooth="yes"/>
      <point x="311" y="1500"/>
      <point x="552" y="1689"/>
      <point x="721" y="1689" type="curve" smooth="yes"/>
      <point x="812" y="1689"/>
      <point x="849" y="1679"/>
      <point x="864" y="1672" type="curve"/>
      <point x="864" y="1502" type="line"/>
      <point x="845" y="1512"/>
      <point x="776" y="1533"/>
      <point x="681" y="1533" type="curve" smooth="yes"/>
      <point x="573" y="1533"/>
      <point x="503" y="1511"/>
      <point x="503" y="1284" type="curve" smooth="yes"/>
      <point x="503" y="1119" type="line"/>
      <point x="805" y="1119" type="line"/>
      <point x="805" y="984" type="line"/>
      <point x="503" y="984" type="line"/>
      <point x="503" y="105" type="line"/>
      <point x="733" y="85" type="line"/>
      <point x="733" y="0" type="line"/>
    </contour>
    <contour>
      <point x="1170" y="1375" type="curve" smooth="yes"/>
      <point x="1105" y="1375"/>
      <point x="1044" y="1421"/>
      <point x="1044" y="1498" type="curve" smooth="yes"/>
      <point x="1044" y="1581"/>
      <point x="1122" y="1644"/>
      <point x="1193" y="1644" type="curve" smooth="yes"/>
      <point x="1281" y="1644"/>
      <point x="1320" y="1588"/>
      <point x="1320" y="1520" type="curve" smooth="yes"/>
      <point x="1320" y="1432"/>
      <point x="1245" y="1375"/>
    </contour>
    <contour>
      <point x="949" y="0" type="line"/>
      <point x="949" y="85" type="line"/>
      <point x="1119" y="106" type="line"/>
      <point x="1119" y="925" type="line"/>
      <point x="981" y="998" type="line"/>
      <point x="981" y="1060" type="line"/>
      <point x="1258" y="1139" type="line"/>
      <point x="1303" y="1119" type="line"/>
      <point x="1303" y="106" type="line"/>
      <point x="1465" y="85" type="line"/>
      <point x="1465" y="0" type="line"/>
    </contour>
  </outline>
</glyph>
<glyph name="acute.cap" format="1">
  <advance width="1062"/>
  <outline>
    <contour>
      <point x="518" y="1607" type="curve"/>
      <point x="465" y="1661" type="line"/>
      <point x="771" y="1920" type="line"/>
      <point x="917" y="1771" type="line"/>
      <point x="792" y="1691"/>
      <point x="642" y="1629"/>
    </contour>
  </outline>
</glyph>
<glyph name="commaaccent" format="1">
  <advance width="707"/>
  <outline>
    <contour>
      <point x="275" y="-145" type="line"/>
      <point x="377" y="-41" type="line"/>
      <point x="515" y="-77"/>
      <point x="582" y="-197"/>
      <point x="582" y="-295" type="curve" smooth="yes"/>
      <point x="582" y="-476"/>
      <point x="421" y="-616"/>
      <point x="332" y="-640" type="curve"/>
      <point x="276" y="-590" type="line"/>
      <point x="276" y="-564" type="line"/>
      <point x="352" y="-529"/>
      <point x="377" y="-422"/>
      <point x="377" y="-335" type="curve" smooth="yes"/>
      <point x="377" y="-259"/>
      <point x="311" y="-199"/>
      <point x="275" y="-199" type="curve"/>
    </contour>
  </outline>
</glyph>
<glyph name="dieresis.cap" format="1">
  <advance width="1062"/>
  <outline>
    <contour>
      <point x="752" y="1651" type="curve" smooth="yes"/>
      <point x="687" y="1651"/>
      <point x="626" y="1697"/>
      <point x="626" y="1774" type="curve" smooth="yes"/>
      <point x="626" y="1857"/>
      <point x="704" y="1920"/>
      <point x="775" y="1920" type="curve" smooth="yes"/>
      <point x="863" y="1920"/>
      <point x="902" y="1864"/>
      <point x="902" y="1796" type="curve" smooth="yes"/>
      <point x="902" y="1708"/>
      <point x="827" y="1651"/>
    </contour>
    <contour>
      <point x="286" y="1651" type="curve" smooth="yes"/>
      <point x="221" y="1651"/>
      <point x="160" y="1697"/>
      <point x="160" y="1774" type="curve" smooth="yes"/>
      <point x="160" y="1857"/>
      <point x="238" y="1920"/>
      <point x="309" y="1920" type="curve" smooth="yes"/>
      <point x="397" y="1920"/>
      <point x="436" y="1864"/>
      <point x="436" y="1796" type="curve" smooth="yes"/>
      <point x="436" y="1708"/>
      <point x="361" y="1651"/>
    </contour>
  </outline>
</glyph>
<glyph name="ogonek.cap" format="1">
  <advance width="709"/>
  <outline>
    <contour>
      <point x="247" y="0" type="curve"/>
      <point x="322" y="5" type="line"/>
      <point x="397" y="0" type="line"/>
      <point x="266" y="-46"/>
      <point x="122" y="-194"/>
      <point x="122" y="-275" type="curve" smooth="yes"/>
      <point x="122" y="-351"/>
      <point x="149" y="-399"/>
      <point x="245" y="-399" type="curve" smooth="yes"/>
      <point x="279" y="-399"/>
      <point x="341" y="-383"/>
      <point x="374" y="-368" type="curve"/>
      <point x="396" y="-456" type="line"/>
      <point x="343" y="-497"/>
      <point x="241" y="-526"/>
      <point x="137" y="-526" type="curve" smooth="yes"/>
      <point x="29" y="-526"/>
      <point x="-61" y="-451"/>
      <point x="-61" y="-333" type="curve" smooth="yes"/>
      <point x="-61" y="-220"/>
      <point x="88" y="-60"/>
    </contour>
  </outline>
</glyph>
